<?xml version="1.0" encoding="UTF-8" standalone="no"?>
<svg
   xmlns:dc="http://purl.org/dc/elements/1.1/"
   xmlns:cc="http://creativecommons.org/ns#"
   xmlns:rdf="http://www.w3.org/1999/02/22-rdf-syntax-ns#"
   xmlns:svg="http://www.w3.org/2000/svg"
   xmlns="http://www.w3.org/2000/svg"
   xmlns:xlink="http://www.w3.org/1999/xlink"
   xmlns:sodipodi="http://sodipodi.sourceforge.net/DTD/sodipodi-0.dtd"
   xmlns:inkscape="http://www.inkscape.org/namespaces/inkscape"
   width="32"
   height="32"
   version="1"
   id="svg12"
   sodipodi:docname="ciano.svg"
   inkscape:version="0.92.4 5da689c313, 2019-01-14">
  <metadata
     id="metadata18">
    <rdf:RDF>
      <cc:Work
         rdf:about="">
        <dc:format>image/svg+xml</dc:format>
        <dc:type
           rdf:resource="http://purl.org/dc/dcmitype/StillImage" />
        <dc:title />
      </cc:Work>
    </rdf:RDF>
  </metadata>
  <defs
     id="defs16">
    <linearGradient
       inkscape:collect="always"
       id="linearGradient840">
      <stop
         style="stop-color:#1b9dce;stop-opacity:1;"
         offset="0"
         id="stop836" />
      <stop
         style="stop-color:#27afe3;stop-opacity:1"
         offset="1"
         id="stop838" />
    </linearGradient>
    <linearGradient
       inkscape:collect="always"
       xlink:href="#linearGradient840"
       id="linearGradient842"
       x1="-58"
       y1="-32"
       x2="-6"
       y2="-32"
       gradientUnits="userSpaceOnUse"
       gradientTransform="matrix(0.53846155,0,0,0.53846155,1.2307688,1.2307693)" />
  </defs>
  <sodipodi:namedview
     pagecolor="#ffffff"
     bordercolor="#666666"
     borderopacity="1"
     objecttolerance="10"
     gridtolerance="10"
     guidetolerance="10"
     inkscape:pageopacity="0"
     inkscape:pageshadow="2"
     inkscape:window-width="1366"
     inkscape:window-height="691"
     id="namedview14"
     showgrid="false"
     inkscape:zoom="10.429825"
     inkscape:cx="8.1199453"
     inkscape:cy="18.891665"
     inkscape:window-x="0"
     inkscape:window-y="0"
     inkscape:window-maximized="1"
     inkscape:current-layer="svg12" />
  <rect
     style="opacity:0.2;fill:#000000;fill-opacity:1;stroke-width:0.53846157"
     width="28"
     height="28"
     x="-31"
     y="-30"
     rx="14"
     ry="14"
     transform="matrix(0,-1,-1,0,0,0)"
     id="rect2-9" />
  <rect
     style="fill:url(#linearGradient842);fill-opacity:1;stroke-width:0.53846157"
     width="28"
     height="28"
     x="-30"
     y="-30"
     rx="14"
     ry="14"
     transform="matrix(0,-1,-1,0,0,0)"
     id="rect2" />
  <path
     style="opacity:0.4;fill:#ffffff;stroke-width:0.53846157"
     d="M 16,2 C 8.24412,2 2,8.2441197 2,16 2,16.05972 2.00625,16.117811 2.00946,16.176683 2.2006796,8.5898882 8.365486,2.5384617 16,2.5384617 c 7.634514,0 13.79932,6.0514265 13.990535,13.6382213 C 29.993724,16.117811 30,16.059726 30,16 30,8.2441197 23.75588,2 16,2 Z"
     id="path4"
     inkscape:connector-curvature="0" />
  <path
     style="opacity:0.2;stroke-width:0.53846157"
     d="M 16.001051,6.8456933 C 15.095302,6.8363273 14.195856,6.9703913 13.322416,7.2095757 9.25516,8.3006062 6.2785827,12.32613 6.3402947,16.539053 H 4.153846 c 1.1145955,1.638896 3.2307696,4.845102 3.2307696,4.845102 0,0 3.2307684,-4.846667 3.2307684,-4.847205 H 8.505709 c -0.0078,-1.764324 0.654418,-3.538542 1.828877,-4.85562 2.2074,-2.6539684 6.204564,-3.7587672 9.278996,-1.503906 0.974611,1.275723 3.100245,-0.171871 2.003455,-1.4334427 -1.615486,-1.2580946 -3.57638,-1.8939802 -5.615986,-1.898288 z m 8.614333,4.8461537 c 0,0 -3.230768,4.845616 -3.230768,4.846154 h 2.109675 c 0.0078,1.764323 -0.654418,3.539594 -1.828877,4.856671 -2.2074,2.653969 -6.204564,3.758767 -9.278996,1.503906 -0.974611,-1.275723 -3.100245,0.171871 -2.003455,1.433444 1.615486,1.258093 3.57638,1.893979 5.615986,1.898287 0.905749,0.0094 1.805195,-0.124697 2.678635,-0.363882 4.067256,-1.091031 7.043833,-5.116555 6.982121,-9.329477 h 2.186449 c -1.114595,-1.638896 -3.23077,-4.845103 -3.23077,-4.845103 z"
     id="path8"
     inkscape:connector-curvature="0" />
  <path
     style="fill:#ffffff;fill-opacity:1;stroke-width:0.53846157"
     d="M 16.001051,6.3076922 C 15.095302,6.2983262 14.195856,6.4323902 13.322416,6.6715746 9.25516,7.7626051 6.2785827,11.788129 6.3402947,16.001051 H 4.153846 c 1.1145955,1.638896 3.2307696,4.845103 3.2307696,4.845103 0,0 3.2307684,-4.846667 3.2307684,-4.847205 H 8.505709 c -0.0078,-1.764324 0.654418,-3.538542 1.828877,-4.85562 2.2074,-2.6539692 6.204564,-3.7587673 9.278996,-1.5039063 0.974611,1.2757233 3.100245,-0.171871 2.003455,-1.4334425 C 20.001551,6.9478863 18.040657,6.312 16.001051,6.3076922 Z m 8.614333,4.8461538 c 0,0 -3.230768,4.845616 -3.230768,4.846154 h 2.109675 c 0.0078,1.764323 -0.654418,3.539593 -1.828877,4.856671 -2.2074,2.653969 -6.204564,3.758767 -9.278996,1.503906 -0.974611,-1.275723 -3.100245,0.171871 -2.003455,1.433443 1.615486,1.258094 3.57638,1.89398 5.615986,1.898288 0.905749,0.0094 1.805195,-0.124698 2.678635,-0.363883 4.067256,-1.09103 7.043833,-5.116554 6.982121,-9.329476 h 2.186449 c -1.114595,-1.638896 -3.23077,-4.845103 -3.23077,-4.845103 z"
     id="path10"
     inkscape:connector-curvature="0" />
</svg>
