<?xml version="1.0" encoding="UTF-8" standalone="no"?>
<svg
   xmlns:dc="http://purl.org/dc/elements/1.1/"
   xmlns:cc="http://creativecommons.org/ns#"
   xmlns:rdf="http://www.w3.org/1999/02/22-rdf-syntax-ns#"
   xmlns:svg="http://www.w3.org/2000/svg"
   xmlns="http://www.w3.org/2000/svg"
   xmlns:xlink="http://www.w3.org/1999/xlink"
   xmlns:sodipodi="http://sodipodi.sourceforge.net/DTD/sodipodi-0.dtd"
   xmlns:inkscape="http://www.inkscape.org/namespaces/inkscape"
   width="32"
   height="32"
   id="svg2"
   version="1.1"
   sodipodi:docname="com.github.muriloventuroso.givemelyrics.svg"
   inkscape:version="0.92.4 5da689c313, 2019-01-14">
  <sodipodi:namedview
     pagecolor="#ffffff"
     bordercolor="#666666"
     borderopacity="1"
     objecttolerance="10"
     gridtolerance="10"
     guidetolerance="10"
     inkscape:pageopacity="0"
     inkscape:pageshadow="2"
     inkscape:window-width="1366"
     inkscape:window-height="691"
     id="namedview47"
     showgrid="false"
     inkscape:zoom="5.2149125"
     inkscape:cx="-12.54017"
     inkscape:cy="21.090504"
     inkscape:window-x="0"
     inkscape:window-y="0"
     inkscape:window-maximized="1"
     inkscape:current-layer="svg2" />
  <defs
     id="defs4">
    <linearGradient
       id="linearGradient915"
       inkscape:collect="always">
      <stop
         id="stop910"
         offset="0"
         style="stop-color:#ffffff;stop-opacity:1" />
      <stop
         id="stop913"
         offset="1"
         style="stop-color:#ffffff;stop-opacity:0" />
    </linearGradient>
    <linearGradient
       id="linearGradient902">
      <stop
         id="stop898"
         offset="0"
         style="stop-color:#770087;stop-opacity:1;" />
      <stop
         id="stop900"
         offset="1"
         style="stop-color:#452981;stop-opacity:1" />
    </linearGradient>
    <linearGradient
       id="linearGradient899">
      <stop
         id="stop895"
         style="stop-color:#f282f1;stop-opacity:1"
         offset="0" />
      <stop
         id="stop897"
         style="stop-color:#a56de2;stop-opacity:1"
         offset="1" />
    </linearGradient>
    <linearGradient
       id="linearGradient916">
      <stop
         id="stop912"
         style="stop-color:#ffffff;stop-opacity:1"
         offset="0" />
      <stop
         id="stop914"
         style="stop-color:#fafafa;stop-opacity:1"
         offset="1" />
    </linearGradient>
    <linearGradient
       id="linearGradient3688-166-749-654">
      <stop
         id="stop3088"
         style="stop-color:#181818;stop-opacity:1"
         offset="0" />
      <stop
         id="stop3090"
         style="stop-color:#181818;stop-opacity:0"
         offset="1" />
    </linearGradient>
    <linearGradient
       id="linearGradient3688-464-309-604">
      <stop
         id="stop3094"
         style="stop-color:#181818;stop-opacity:1"
         offset="0" />
      <stop
         id="stop3096"
         style="stop-color:#181818;stop-opacity:0"
         offset="1" />
    </linearGradient>
    <linearGradient
       id="linearGradient3702-501-757-795">
      <stop
         id="stop3100"
         style="stop-color:#181818;stop-opacity:0"
         offset="0" />
      <stop
         id="stop3102"
         style="stop-color:#181818;stop-opacity:1"
         offset="0.5" />
      <stop
         id="stop3104"
         style="stop-color:#181818;stop-opacity:0"
         offset="1" />
    </linearGradient>
    <radialGradient
       xlink:href="#linearGradient3688-166-749-654"
       id="radialGradient4730"
       gradientUnits="userSpaceOnUse"
       gradientTransform="matrix(3.2060542,2.6349059e-7,-8.2185947e-8,1.0000077,36.981009,15.99962)"
       cx="4.9964824"
       cy="43.5"
       fx="4.9964824"
       fy="43.5"
       r="2.5" />
    <radialGradient
       xlink:href="#linearGradient3688-464-309-604"
       id="radialGradient4732"
       gradientUnits="userSpaceOnUse"
       gradientTransform="matrix(3.163875,0,0,0.99999995,-29.702994,-103.00012)"
       cx="4.9929786"
       cy="43.5"
       fx="4.9929786"
       fy="43.5"
       r="2.5" />
    <linearGradient
       xlink:href="#linearGradient3702-501-757-795"
       id="linearGradient4734"
       gradientUnits="userSpaceOnUse"
       gradientTransform="matrix(1.3928572,0,0,0.71428561,-0.0214163,28.42862)"
       x1="25.058096"
       y1="47.027729"
       x2="25.058096"
       y2="39.999443" />
    <linearGradient
       gradientTransform="matrix(1.4324324,0,0,1.4362832,-7.3783796,-7.3995521)"
       gradientUnits="userSpaceOnUse"
       xlink:href="#linearGradient3924-2-2-5-8"
       id="linearGradient3381-5-4"
       y2="46.230125"
       x2="38.660378"
       y1="5.8481169"
       x1="38.660378" />
    <linearGradient
       id="linearGradient3924-2-2-5-8">
      <stop
         offset="0"
         style="stop-color:#ffffff;stop-opacity:1"
         id="stop3926-9-4-9-6" />
      <stop
         offset="0.06316455"
         style="stop-color:#ffffff;stop-opacity:0.23529412"
         id="stop3928-9-8-6-5" />
      <stop
         offset="0.95056331"
         style="stop-color:#ffffff;stop-opacity:0.15686275"
         id="stop3930-3-5-1-7" />
      <stop
         offset="1"
         style="stop-color:#ffffff;stop-opacity:0.39215687"
         id="stop3932-8-0-4-8" />
    </linearGradient>
    <linearGradient
       gradientTransform="matrix(0.47054764,0,0,0.47457626,-60.688645,-0.1484071)"
       gradientUnits="userSpaceOnUse"
       xlink:href="#linearGradient916"
       id="linearGradient5809"
       y2="55.027"
       x2="161.97743"
       y1="10.027002"
       x1="161.97743" />
    <linearGradient
       y2="63.027"
       x2="161.97743"
       y1="5.1520023"
       x1="161.97743"
       gradientTransform="matrix(0.47054764,0,0,0.47457626,-60.688645,-0.1484071)"
       gradientUnits="userSpaceOnUse"
       id="linearGradient910"
       xlink:href="#linearGradient899" />
    <linearGradient
       gradientUnits="userSpaceOnUse"
       y2="60"
       x2="32"
       y1="0"
       x1="32"
       id="linearGradient904"
       xlink:href="#linearGradient902" />
    <linearGradient
       y2="63.027"
       x2="161.97743"
       y1="5.1520023"
       x1="161.97743"
       gradientTransform="matrix(0.94117646,0,0,0.94915254,-73.044014,10.801587)"
       gradientUnits="userSpaceOnUse"
       id="linearGradient910-3"
       xlink:href="#linearGradient899" />
    <linearGradient
       gradientTransform="matrix(0.49995687,0,0,0.49999999,0.00137947,-32)"
       inkscape:collect="always"
       xlink:href="#linearGradient915"
       id="linearGradient884-3"
       x1="30.052145"
       y1="59.613117"
       x2="29.920942"
       y2="55.20269"
       gradientUnits="userSpaceOnUse" />
    <linearGradient
       y2="63.027"
       x2="161.97743"
       y1="5.1520023"
       x1="161.97743"
       gradientTransform="matrix(0.47054764,0,0,0.47457626,-76.305129,-44.360347)"
       gradientUnits="userSpaceOnUse"
       id="linearGradient910-5"
       xlink:href="#linearGradient899" />
  </defs>
  <metadata
     id="metadata7">
    <rdf:RDF>
      <cc:Work
         rdf:about="">
        <dc:format>image/svg+xml</dc:format>
        <dc:type
           rdf:resource="http://purl.org/dc/dcmitype/StillImage" />
        <dc:title />
      </cc:Work>
    </rdf:RDF>
  </metadata>
  <rect
     width="23.997931"
     height="28"
     rx="1.4484043"
     ry="1.4608049"
     x="4.0010357"
     y="2.7520487"
     id="rect4897-1"
     style="opacity:0.2;vector-effect:none;fill:#000000;fill-opacity:1;stroke:none;stroke-width:0.47255766;stroke-linecap:butt;stroke-linejoin:miter;stroke-miterlimit:4;stroke-dasharray:none;stroke-dashoffset:0;stroke-opacity:1;" />
  <rect
     width="23.997931"
     height="28"
     rx="1.4484043"
     ry="1.4608049"
     x="4.0010343"
     y="2"
     id="rect4897"
     style="opacity:1;vector-effect:none;fill:url(#linearGradient910);fill-opacity:1;stroke:none;stroke-width:0.47255766;stroke-linecap:butt;stroke-linejoin:miter;stroke-miterlimit:4;stroke-dasharray:none;stroke-dashoffset:0;stroke-opacity:1" />
  <path
     d="m 7.5301409,6.7457627 h 1.4809655 z m 1.6981725,0 h 1.3822336 z m 1.5994426,0 h 1.224262 z m 1.421725,0 h 0.533147 z m 0.750356,0 h 1.18477 z m 1.421724,0 h 3.119899 z m 3.31736,0 h 2.389289 z m 2.586752,0 h 0.730609 z M 7.5301409,8.1694913 h 2.3103042 z m 2.5670061,0 h 1.105785 z m 1.303248,0 h 0.552894 z m 0.770102,0 h 1.007055 z m 1.224262,0 h 1.026802 z m 1.224265,0 h 1.638933 z m 1.85614,0 h 2.13259 z m 2.330051,0 h 1.421726 z m 1.619188,0 h 0.355431 z M 7.5301409,9.5832778 h 1.9548735 z m 2.1523349,0 h 3.1988832 z m 3.3963452,0 h 1.559949 z m 1.757411,0 h 1.461218 z m 1.65868,0 h 1.244009 z m 1.44147,0 1.954874,0.019887 z m 2.132589,0.019887 h 3.179136 z M 7.5301409,11.016951 h 2.7052301 z m 2.9224381,0 h 2.922435 z m 3.119897,0 h 1.165025 z m 1.362486,0 h 2.744721 z m 2.922436,0 h 1.875889 z m 2.093097,0 h 0.750354 z m 0.947815,0 h 0.414671 z m 0.631879,0 h 1.165026 z M 7.5301409,12.44068 h 1.0070555 z m 1.3229952,0 h 3.7320309 z m -1.3229952,2.372882 h 1.4809655 z m 1.6981725,0 h 1.3624876 z m 1.5994426,0 h 1.224262 z m 1.421725,0 h 0.533147 z m 0.750356,0 h 1.18477 z m 1.421724,0 h 3.100151 z m 3.31736,0 h 2.369543 z m 2.567004,0 h 0.750357 z m 0.947818,0 H 23.0309 Z M 7.5301409,16.23729 h 2.4880211 z m 2.6854831,0 h 2.665735 z m 2.863197,0 h 1.026802 z m 1.224264,0 h 2.507766 z m 2.705227,0 h 3.159391 z m 3.376598,0 h 1.165025 z M 7.5301409,17.661019 h 2.7052301 z m 2.9224381,0 h 2.922435 z m 3.119897,0 h 1.165025 z m 1.362486,0 h 2.744721 z m 2.922436,0 h 1.875889 z m 2.093097,0 h 0.750354 z m 0.947815,0 h 0.414671 z m 0.631879,0 h 1.165026 z M 7.5301409,19.084747 h 2.3103042 z m 2.5670061,0 h 1.105785 z m 1.303248,0 h 0.552894 z m 0.770102,0 h 1.007055 z m 1.224262,0 h 1.026802 z m 1.224265,0 h 1.638933 z m 1.85614,0 h 2.13259 z m 2.330051,0 h 1.421726 z m 1.619188,0 h 0.355431 z M 7.5301409,21.447688 h 1.9548735 z m 2.1523349,0 h 3.1988832 z m 3.3963452,0 h 1.559949 z m 1.757411,0 h 1.461218 z m 1.65868,0 h 1.244009 z m 1.44147,0 1.954874,0.01988 z m 2.132589,0.01988 h 3.179136 z M 7.5301409,22.881356 h 2.3103042 z m 2.5670061,0 h 1.105785 z m 1.303248,0 h 0.552894 z m 0.770102,0 h 1.007055 z m 1.224262,0 h 1.026802 z m 1.224265,0 h 1.638933 z m 1.85614,0 h 2.13259 z m 2.330051,0 h 1.421726 z m 1.619188,0 h 0.355431 z M 7.5301409,24.305085 h 2.4485287 z m 2.6657371,0 h 0.770101 z m 0.967562,0 h 1.757411 z m 1.954873,0 h 2.586751 z m 2.803958,0 h 1.757412 z m 1.935127,0 h 0.375178 z m 0.57264,0 h 2.231319 z m 2.468272,0 h 1.165026 z M 7.5301409,25.728813 h 2.4485287 z m 2.6657371,0 h 1.105786 z m 1.303248,0 h 1.737664 z m 1.935127,0 h 1.875887 z m 2.093095,0 h 0.750355 z m 0.947816,0 h 0.414671 z m 0.631879,0 h 1.165027 z"
     id="path3475"
     style="opacity:0.7;fill:none;stroke:#770087;stroke-width:0.47255763px;stroke-linecap:butt;stroke-linejoin:miter;stroke-opacity:1"
     inkscape:connector-curvature="0" />
  <path
     style="opacity:0.5;fill:#770087;fill-opacity:1;stroke:none;stroke-width:0.47255766"
     id="path927"
     d="m 16.246238,5.0787536 c -0.717756,0 -0.70179,0.4786245 -0.70179,0.9662755 l -0.0088,13.8587229 c 0,0 -0.293236,-0.03459 -0.568902,-0.03459 -2.092686,-0.128667 -4.379132,1.401794 -4.588342,3.610476 -0.246563,1.756032 1.593091,3.200856 3.233595,2.927737 2.06694,-0.221489 3.604803,-2.325115 3.335298,-4.402283 0.0057,-3.657246 -0.01167,-7.318725 0.0088,-10.973328 0.140897,-0.162756 0.428397,0.183775 0.576832,0.200779 1.66233,0.992022 3.1328,2.627904 3.232063,4.665118 0.109139,1.591885 -0.368712,3.149516 -0.906435,4.625282 1.80169,-2.236836 2.378454,-5.499932 1.126473,-8.141969 C 20.34473,10.847306 18.900294,9.9021684 18.092253,8.4776614 17.495517,7.5257069 17.041363,6.4629837 16.899268,5.3391301 16.782281,5.1047751 16.474118,5.0762386 16.246242,5.0787586 Z"
     inkscape:connector-curvature="0" />
  <path
     d="m 16.246238,4.5982758 c -0.717756,0 -0.70179,0.4786243 -0.70179,0.9662753 l -0.0088,13.8587229 c 0,0 -0.293236,-0.03459 -0.568902,-0.03459 -2.092686,-0.128667 -4.379132,1.401795 -4.588342,3.610478 -0.246563,1.756031 1.593091,3.200855 3.233595,2.927737 2.06694,-0.22149 3.604803,-2.325116 3.335298,-4.402284 0.0057,-3.657245 -0.01167,-7.318725 0.0088,-10.973328 0.140897,-0.162755 0.428397,0.183775 0.576832,0.200779 1.66233,0.992021 3.1328,2.627905 3.232063,4.665118 0.109139,1.591885 -0.368712,3.149516 -0.906435,4.625282 1.80169,-2.236834 2.378454,-5.499931 1.126472,-8.141968 C 20.34473,10.36683 18.900294,9.4216919 18.092253,7.9971849 17.495517,7.0452304 17.041363,5.982507 16.899268,4.8586535 16.782281,4.6242983 16.474118,4.5957619 16.246242,4.5982819 Z"
     id="path7249-8-0-3-6-1-6"
     style="opacity:1;fill:url(#linearGradient5809);fill-opacity:1;stroke:none;stroke-width:0.47255766"
     inkscape:connector-curvature="0" />
  <rect
     width="23.507463"
     height="27.509489"
     rx="1.418802"
     ry="1.4352144"
     x="4.2462683"
     y="-29.754745"
     id="rect4897-5-2"
     style="opacity:0.4;vector-effect:none;fill:none;fill-opacity:1;stroke:url(#linearGradient884-3);stroke-width:0.49048921;stroke-linecap:butt;stroke-linejoin:miter;stroke-miterlimit:4;stroke-dasharray:none;stroke-dashoffset:0;stroke-opacity:1"
     transform="scale(1,-1)" />
</svg>
