<?xml version="1.0" encoding="UTF-8" standalone="no"?>
<svg
   xmlns:dc="http://purl.org/dc/elements/1.1/"
   xmlns:cc="http://creativecommons.org/ns#"
   xmlns:rdf="http://www.w3.org/1999/02/22-rdf-syntax-ns#"
   xmlns:svg="http://www.w3.org/2000/svg"
   xmlns="http://www.w3.org/2000/svg"
   xmlns:xlink="http://www.w3.org/1999/xlink"
   xmlns:sodipodi="http://sodipodi.sourceforge.net/DTD/sodipodi-0.dtd"
   xmlns:inkscape="http://www.inkscape.org/namespaces/inkscape"
   width="32"
   height="32"
   version="1"
   id="svg12"
   sodipodi:docname="com.github.artemanufrij.webpin.svg"
   inkscape:version="0.92.4 5da689c313, 2019-01-14">
  <metadata
     id="metadata18">
    <rdf:RDF>
      <cc:Work
         rdf:about="">
        <dc:format>image/svg+xml</dc:format>
        <dc:type
           rdf:resource="http://purl.org/dc/dcmitype/StillImage" />
        <dc:title />
      </cc:Work>
    </rdf:RDF>
  </metadata>
  <defs
     id="defs16">
    <linearGradient
       inkscape:collect="always"
       id="linearGradient832">
      <stop
         style="stop-color:#2983f1;stop-opacity:1"
         offset="0"
         id="stop828" />
      <stop
         style="stop-color:#4f99f3;stop-opacity:1"
         offset="1"
         id="stop830" />
    </linearGradient>
    <linearGradient
       inkscape:collect="always"
       xlink:href="#linearGradient832"
       id="linearGradient834"
       x1="24.372881"
       y1="37.830509"
       x2="24"
       y2="9"
       gradientUnits="userSpaceOnUse"
       gradientTransform="matrix(0.63636364,0,0,0.60666668,0.7272727,1.34)" />
  </defs>
  <sodipodi:namedview
     pagecolor="#ffffff"
     bordercolor="#666666"
     borderopacity="1"
     objecttolerance="10"
     gridtolerance="10"
     guidetolerance="10"
     inkscape:pageopacity="0"
     inkscape:pageshadow="2"
     inkscape:window-width="1366"
     inkscape:window-height="691"
     id="namedview14"
     showgrid="false"
     inkscape:zoom="6.9532167"
     inkscape:cx="-9.8773674"
     inkscape:cy="8.9528989"
     inkscape:window-x="0"
     inkscape:window-y="0"
     inkscape:window-maximized="1"
     inkscape:current-layer="svg12" />
  <path
     d="M 2.0148909,18.564587 C 2.0096091,18.670754 2,18.7751 2,18.88248 2,22.537647 5.1340275,25.5 9,25.5 H 23.875 C 27.257909,25.5 30,22.907713 30,19.709367 30,19.604413 29.9911,19.50128 29.98536,19.39754 c -0.164183,3.060027 -2.833093,5.495793 -6.110365,5.495793 H 9 c -3.7627545,0 -6.8237273,-2.808866 -6.9853636,-6.328746 z"
     id="path2"
     inkscape:connector-curvature="0"
     style="opacity:0.2;stroke-width:0.62133771" />
  <path
     style="fill:url(#linearGradient834);fill-opacity:1;stroke-width:0.62133771"
     d="M 16,6.8 C 12.375909,6.8 9.289545,8.8978545 7.9608178,11.866881 4.5872636,12.341294 2,15.060373 2,18.381874 2,22.03704 5.1340275,25 9,25 H 23.875 C 27.257909,25 30,22.407107 30,19.209367 30,16.236701 27.635909,13.800934 24.585818,13.469694 23.790364,9.6756007 20.247091,6.8 16,6.8 Z"
     id="path4"
     inkscape:connector-curvature="0" />
  <path
     d="M 16,6.8 C 12.375909,6.8 9.289545,8.8972469 7.9608178,11.866881 4.5872636,12.340687 2,15.060981 2,18.38248 c 0,0.09767 0.0105,0.192314 0.014891,0.288774 0.1595363,-3.175293 2.681,-5.739066 5.9459267,-6.197707 C 9.289545,9.5039145 12.375909,7.4066669 16,7.4066669 c 4.247091,0 7.790364,2.8749941 8.585818,6.6696941 2.942546,0.319106 5.239818,2.598959 5.399546,5.427847 C 29.990455,19.405927 30,19.30886 30,19.209367 30,16.236701 27.635909,13.800934 24.585818,13.469694 23.790364,9.6749938 20.247091,6.8 16,6.8 Z"
     id="path6"
     style="opacity:0.4;fill:#ffffff;stroke-width:0.62133771"
     inkscape:connector-curvature="0" />
  <path
     style="opacity:0.2;fill:none;stroke:#000000;stroke-width:2.48535085;stroke-linecap:round;stroke-linejoin:round"
     d="M 7.7272726,9.8420747 11.545454,23.188742 15.999999,13.187235 20.454545,23.188742 24.272727,9.8420747"
     id="path8"
     inkscape:connector-curvature="0" />
  <path
     style="fill:none;stroke:#ffffff;stroke-width:2.48535085;stroke-linecap:round;stroke-linejoin:round;stroke-opacity:1"
     d="M 7.7272726,9.2351292 11.545454,22.581795 15.999999,12.580289 20.454545,22.581795 24.272727,9.2351292"
     id="path10"
     inkscape:connector-curvature="0" />
</svg>
