<?xml version="1.0" encoding="UTF-8" standalone="no"?>
<svg
   xmlns:dc="http://purl.org/dc/elements/1.1/"
   xmlns:cc="http://creativecommons.org/ns#"
   xmlns:rdf="http://www.w3.org/1999/02/22-rdf-syntax-ns#"
   xmlns:svg="http://www.w3.org/2000/svg"
   xmlns="http://www.w3.org/2000/svg"
   xmlns:xlink="http://www.w3.org/1999/xlink"
   xmlns:sodipodi="http://sodipodi.sourceforge.net/DTD/sodipodi-0.dtd"
   xmlns:inkscape="http://www.inkscape.org/namespaces/inkscape"
   width="32"
   height="32"
   version="1"
   id="svg6314"
   sodipodi:docname="application-x-executable.svg"
   inkscape:version="0.92.5 (2060ec1f9f, 2020-04-08)">
  <metadata
     id="metadata6320">
    <rdf:RDF>
      <cc:Work
         rdf:about="">
        <dc:format>image/svg+xml</dc:format>
        <dc:type
           rdf:resource="http://purl.org/dc/dcmitype/StillImage" />
        <dc:title />
      </cc:Work>
    </rdf:RDF>
  </metadata>
  <defs
     id="defs6318">
    <linearGradient
       inkscape:collect="always"
       id="linearGradient5569">
      <stop
         style="stop-color:#e6e6e6;stop-opacity:1;"
         offset="0"
         id="stop5565" />
      <stop
         style="stop-color:#f0f0f0;stop-opacity:1"
         offset="1"
         id="stop5567" />
    </linearGradient>
    <linearGradient
       inkscape:collect="always"
       xlink:href="#linearGradient5569"
       id="linearGradient826"
       x1="-24.521025"
       y1="6.5710678"
       x2="15.478975"
       y2="6.5710678"
       gradientUnits="userSpaceOnUse"
       gradientTransform="matrix(0.7,0,0,0.7,-12.835282,11.400252)" />
  </defs>
  <sodipodi:namedview
     pagecolor="#ffffff"
     bordercolor="#666666"
     borderopacity="1"
     objecttolerance="10"
     gridtolerance="10"
     guidetolerance="10"
     inkscape:pageopacity="0"
     inkscape:pageshadow="2"
     inkscape:window-width="1920"
     inkscape:window-height="1021"
     id="namedview6316"
     showgrid="false"
     inkscape:zoom="13.906433"
     inkscape:cx="18.004535"
     inkscape:cy="4.8010985"
     inkscape:window-x="0"
     inkscape:window-y="25"
     inkscape:window-maximized="1"
     inkscape:current-layer="svg6314" />
  <rect
     style="opacity:0.2;fill:#000000;fill-opacity:1;stroke:none;stroke-width:0.51121062;stroke-miterlimit:4;stroke-dasharray:none;stroke-opacity:1"
     id="rect818-6"
     width="28"
     height="28"
     x="-31"
     y="2"
     transform="rotate(-90)"
     rx="2.4161479"
     ry="2.4161479" />
  <rect
     style="opacity:1;fill:url(#linearGradient826);fill-opacity:1;stroke:none;stroke-width:0.51121062;stroke-miterlimit:4;stroke-dasharray:none;stroke-opacity:1"
     id="rect818"
     width="28"
     height="28"
     x="-30"
     y="2"
     transform="rotate(-90)"
     rx="2.4161479"
     ry="2.4161479" />
  <path
     style="fill:#646464;fill-opacity:1;stroke-width:0.19954158"
     d="m 13.00439,19.182475 c -0.618606,0 -1.116541,-0.498659 -1.116541,-1.118168 V 17.540128 A 4.1873216,4.1934286 0 0 1 10.567238,16.776091 L 10.113534,17.03818 C 9.5778036,17.347935 8.8973774,17.165177 8.5880735,16.628666 L 8.3088411,16.145049 C 7.9995378,15.608537 8.1820299,14.927119 8.7177596,14.617365 L 9.169517,14.356055 A 4.1873216,4.1934286 0 0 1 9.0962997,13.591238 4.1873216,4.1934286 0 0 1 9.169517,12.826422 L 8.7177596,12.565112 C 8.1820299,12.255357 7.9995378,11.573939 8.3088411,11.037428 L 8.5880735,10.553811 C 8.8973774,10.0173 9.5778036,9.8345433 10.113534,10.144296 l 0.450588,0.26053 a 4.1873216,4.1934286 0 0 1 1.323727,-0.7613057 v -0.525349 c 0,-0.6195087 0.497935,-1.1181697 1.116541,-1.1181697 h 0.558466 c 0.618606,0 1.11654,0.498661 1.11654,1.1181697 v 0.527298 a 4.1873216,4.1934286 0 0 1 1.320611,0.7609157 l 0.453705,-0.262089 c 0.535729,-0.3097527 1.216155,-0.126996 1.525459,0.409515 l 0.279233,0.483617 c 0.309303,0.536511 0.12681,1.217929 -0.408919,1.527684 l -0.451757,0.26131 a 4.1873216,4.1934286 0 0 1 0.07322,0.764816 4.1873216,4.1934286 0 0 1 -0.07322,0.764817 l 0.451757,0.26131 c 0.53573,0.309754 0.718222,0.991172 0.408919,1.527684 l -0.279233,0.483617 c -0.309304,0.536511 -0.98973,0.719269 -1.525459,0.409514 l -0.45059,-0.26053 a 4.1873216,4.1934286 0 0 1 -1.323726,0.761698 v 0.524959 c 0,0.619509 -0.497934,1.118168 -1.11654,1.118168 z m 0.279232,-3.195382 c 1.321444,0 2.392756,-1.072874 2.392756,-2.396245 0,-1.32337 -1.071312,-2.395854 -2.392756,-2.395854 -1.321443,0 -2.392754,1.072484 -2.392754,2.395854 0,1.323371 1.071311,2.396245 2.392754,2.396245 z"
     id="path4"
     inkscape:connector-curvature="0" />
  <path
     style="fill:#646464;fill-opacity:1;stroke-width:0.14252971"
     d="m 19.500424,24.075232 c -0.44139,-0.02042 -0.780211,-0.392673 -0.759759,-0.834703 l 0.01731,-0.374014 a 2.9909439,2.9953061 2.6493618 0 1 -0.917059,-0.588759 l -0.332381,0.172027 c -0.392482,0.203327 -0.871949,0.05046 -1.074929,-0.342562 L 16.250329,21.75293 c -0.20298,-0.393025 -0.05027,-0.873207 0.342206,-1.076539 l 0.330967,-0.171533 a 2.9909439,2.9953061 2.6493618 0 1 -0.02699,-0.548132 2.9909439,2.9953061 2.6493618 0 1 0.07749,-0.543296 l -0.313711,-0.201365 c -0.372028,-0.238704 -0.479742,-0.730938 -0.241334,-1.103537 l 0.215208,-0.335852 c 0.238414,-0.372599 0.729944,-0.480536 1.101972,-0.241832 l 0.312903,0.200768 a 2.9909439,2.9953061 2.6493618 0 1 0.969644,-0.499505 l 0.01735,-0.374846 c 0.02046,-0.442032 0.392206,-0.781399 0.833596,-0.760974 l 0.398476,0.01844 c 0.44139,0.02042 0.780211,0.392674 0.759759,0.834703 l -0.01741,0.376239 a 2.9909439,2.9953061 2.6493618 0 1 0.917161,0.586534 l 0.332383,-0.172026 c 0.392481,-0.203328 0.871947,-0.05046 1.074928,0.342563 l 0.183271,0.354289 c 0.20298,0.393024 0.05027,0.873206 -0.342206,1.076538 l -0.330966,0.171534 a 2.9909439,2.9953061 2.6493618 0 1 0.02699,0.548131 2.9909439,2.9953061 2.6493618 0 1 -0.0775,0.543297 l 0.313711,0.201365 c 0.372029,0.238704 0.479742,0.730939 0.241334,1.103538 l -0.215209,0.335852 c -0.238403,0.372603 -0.729942,0.480536 -1.10197,0.241832 l -0.312904,-0.200769 a 2.9909439,2.9953061 2.6493618 0 1 -0.969655,0.499782 l -0.01733,0.374571 c -0.02046,0.442033 -0.392204,0.781398 -0.833595,0.760974 z m 0.304741,-2.270757 c 0.942879,0.04363 1.742707,-0.686518 1.786401,-1.630773 0.04369,-0.944254 -0.685301,-1.744866 -1.628181,-1.788496 -0.942879,-0.04363 -1.742694,0.686239 -1.786387,1.630493 -0.04369,0.944256 0.685288,1.745146 1.628167,1.788776 z"
     id="path4-8"
     inkscape:connector-curvature="0" />
</svg>
