<?xml version="1.0" encoding="UTF-8" standalone="no"?>
<svg
   xmlns:dc="http://purl.org/dc/elements/1.1/"
   xmlns:cc="http://creativecommons.org/ns#"
   xmlns:rdf="http://www.w3.org/1999/02/22-rdf-syntax-ns#"
   xmlns:svg="http://www.w3.org/2000/svg"
   xmlns="http://www.w3.org/2000/svg"
   xmlns:xlink="http://www.w3.org/1999/xlink"
   xmlns:sodipodi="http://sodipodi.sourceforge.net/DTD/sodipodi-0.dtd"
   xmlns:inkscape="http://www.inkscape.org/namespaces/inkscape"
   width="32"
   height="32"
   version="1"
   id="svg6314"
   sodipodi:docname="application-x-torrent.svg"
   inkscape:version="0.92.5 (2060ec1f9f, 2020-04-08)">
  <metadata
     id="metadata6320">
    <rdf:RDF>
      <cc:Work
         rdf:about="">
        <dc:format>image/svg+xml</dc:format>
        <dc:type
           rdf:resource="http://purl.org/dc/dcmitype/StillImage" />
        <dc:title></dc:title>
      </cc:Work>
    </rdf:RDF>
  </metadata>
  <defs
     id="defs6318">
    <linearGradient
       inkscape:collect="always"
       id="linearGradient5569">
      <stop
         style="stop-color:#e6e6e6;stop-opacity:1;"
         offset="0"
         id="stop5565" />
      <stop
         style="stop-color:#f0f0f0;stop-opacity:1"
         offset="1"
         id="stop5567" />
    </linearGradient>
    <linearGradient
       inkscape:collect="always"
       xlink:href="#linearGradient5569"
       id="linearGradient5571"
       x1="24.179562"
       y1="44.134567"
       x2="22.166527"
       y2="4.0092521"
       gradientUnits="userSpaceOnUse"
       gradientTransform="matrix(0.75000001,0,0,0.7,-2,-0.8)" />
  </defs>
  <sodipodi:namedview
     pagecolor="#ffffff"
     bordercolor="#666666"
     borderopacity="1"
     objecttolerance="10"
     gridtolerance="10"
     guidetolerance="10"
     inkscape:pageopacity="0"
     inkscape:pageshadow="2"
     inkscape:window-width="1920"
     inkscape:window-height="1021"
     id="namedview6316"
     showgrid="false"
     inkscape:zoom="13.906433"
     inkscape:cx="1.7890179"
     inkscape:cy="6.4909639"
     inkscape:window-x="0"
     inkscape:window-y="25"
     inkscape:window-maximized="1"
     inkscape:current-layer="svg6314" />
  <path
     inkscape:connector-curvature="0"
     style="opacity:0.2;fill:#000000;fill-opacity:1;stroke:none;stroke-width:1.12688565"
     d="M 4,3 V 31 H 28 V 10 L 20.5,3 Z"
     id="rect5540-8" />
  <path
     style="opacity:1;fill:url(#linearGradient5571);fill-opacity:1;stroke:none;stroke-width:1.12688565"
     d="M 4,2 V 30 H 28 V 9 L 20.5,2 Z"
     id="rect5540"
     inkscape:connector-curvature="0" />
  <path
     style="opacity:0.2;fill:#000000;fill-opacity:1;stroke:none;stroke-width:0.72456884px;stroke-linecap:butt;stroke-linejoin:miter;stroke-opacity:1"
     d="M 20.5,2 V 9 H 28 Z"
     id="path5546-4"
     inkscape:connector-curvature="0" />
  <circle
     style="opacity:1;fill:#00a441;fill-opacity:1;stroke:none;stroke-width:0.45766845;stroke-miterlimit:4;stroke-dasharray:none;stroke-opacity:0;paint-order:stroke fill markers"
     id="path823"
     cx="16"
     cy="19"
     r="7" />
  <path
     d="m 15.118972,13.122704 c -0.05784,0.0017 -0.118028,0.01038 -0.180067,0.02572 -1.176848,0.291805 -2.173849,0.862847 -3.059419,1.75252 -0.636973,0.63967 -1.071577,1.28304 -1.376585,2.037307 -0.21896,0.541283 -0.325675,0.954721 -0.403235,1.563888 -0.04252,0.33446 -0.04252,1.24586 0,1.580153 0.07324,0.574604 0.176322,0.987517 0.370317,1.483492 0.335756,0.857763 0.838041,1.58256 1.588913,2.292405 1.05861,1.000745 2.275175,1.56198 3.756323,1.732823 0.205388,0.02362 0.477338,0.02887 1.89321,0.03666 l 0.748659,-0.07542 c 0.671886,-0.310363 1.418209,-0.650536 1.961899,-1.132758 l -1.864757,0.01619 c -2.630406,0.02275 -2.557624,0.0027 -3.081233,-0.09779 -0.789206,-0.150928 -1.528721,-0.490533 -2.195708,-1.008367 -0.235768,-0.183015 -0.739655,-0.676663 -0.912135,-0.893348 -0.360525,-0.453662 -0.621984,-0.918278 -0.80478,-1.430643 -0.347681,-0.974304 -0.380056,-2.166159 -0.0861,-3.162329 0.186051,-0.629798 0.49636,-1.209538 0.929022,-1.7353 0.188938,-0.22939 0.62433,-0.6552 0.862803,-0.84385 0.56881,-0.449776 1.240277,-0.782968 1.910877,-0.948168 0.0913,-0.02257 0.202318,-0.05889 0.246793,-0.08094 0.105957,-0.05241 0.213002,-0.161498 0.270682,-0.275922 0.04104,-0.08146 0.04647,-0.110204 0.04647,-0.245796 0,-0.140517 -0.0044,-0.162339 -0.0539,-0.25984 -0.111942,-0.22176 -0.317503,-0.338538 -0.568103,-0.330558 z m 0.79296,1.453997 c -0.09876,0.0017 -0.222976,0.01916 -0.390312,0.05302 -0.707121,0.142983 -1.358191,0.442373 -1.939113,0.89145 -0.224918,0.173845 -0.68509,0.621696 -0.857938,0.834855 -0.583633,0.719538 -0.91776,1.520146 -1.00925,2.417931 -0.02564,0.250889 -0.02127,0.862724 0.0079,1.106919 0.128545,1.075865 0.587807,1.99024 1.396902,2.781713 0.613645,0.60017 1.330315,1.019068 2.092037,1.22289 0.212983,0.05697 0.346273,0.08392 0.66087,0.133622 l 0.231411,0.03649 2.591793,0.0053 c 0.940074,0.0018 1.674697,-0.0017 2.129164,0.0026 0.353203,-0.36113 0.68446,-0.693202 0.95628,-1.118959 l -5.66062,-0.0665 -0.19019,-0.03578 c -0.406447,-0.07647 -0.6818,-0.1654 -1.00906,-0.32549 -0.689035,-0.337287 -1.312298,-0.946943 -1.65746,-1.621865 -0.424882,-0.83097 -0.490822,-1.889038 -0.174413,-2.80393 0.107403,-0.311018 0.352528,-0.74388 0.568041,-1.00324 0.618529,-0.744922 1.390375,-1.202958 2.248287,-1.334488 0.21371,-0.03282 0.341398,-0.09226 0.452042,-0.210219 0.11753,-0.125353 0.156371,-0.23359 0.147875,-0.41202 -0.0053,-0.10913 -0.01592,-0.15729 -0.05136,-0.227815 -0.05547,-0.110542 -0.180591,-0.226888 -0.305349,-0.283833 -0.06554,-0.03001 -0.13888,-0.04428 -0.237641,-0.0427 z m 0.598684,1.573188 c -0.499774,1.5e-4 -0.881274,0.08488 -1.31537,0.288523 -0.357814,0.168027 -0.624864,0.3598 -0.934212,0.671169 -0.371918,0.374316 -0.592103,0.719206 -0.745062,1.166865 -0.22022,0.644428 -0.219118,1.389343 0.0027,2.03959 0.292355,0.856878 1.01465,1.591213 1.891007,1.922856 0.206115,0.07797 0.326908,0.110553 0.595761,0.161157 l 0.231412,0.04358 3.0961,0.0053 c 1.550201,0.0027 2.346968,0.0053 2.742713,0.01062 0.199858,-0.366371 0.36855,-0.751336 0.50274,-1.151552 l -2.916227,-1.49e-4 c -2.092256,-3.15e-4 -3.301488,-0.0062 -3.375803,-0.01653 -0.259813,-0.03631 -0.538413,-0.13139 -0.748693,-0.25516 -0.24227,-0.142817 -0.529007,-0.41062 -0.692992,-0.647053 -0.20811,-0.30044 -0.31899,-0.681809 -0.319173,-1.09844 -1.49e-4,-0.551154 0.176286,-0.980455 0.567,-1.378922 0.193463,-0.197295 0.36526,-0.322323 0.595245,-0.43322 0.295793,-0.142468 0.474058,-0.180198 0.945963,-0.199588 0.262342,-0.01073 0.306065,-0.01645 0.370255,-0.04865 0.248965,-0.125537 0.381903,-0.408012 0.308132,-0.655025 -0.05293,-0.17808 -0.166907,-0.30779 -0.335589,-0.3829 -0.06834,-0.03037 -0.11466,-0.0357 -0.36435,-0.04095 -0.03438,-7.27e-4 -0.06825,-8.75e-4 -0.101593,-8.75e-4 z"
     style="fill:#ffffff;fill-opacity:1;stroke-width:0.03748627"
     id="path2-3"
     inkscape:connector-curvature="0"
     sodipodi:nodetypes="ccccccccccccsccccccccccscccccccccccccccccccccccccccccccccccccccccccccccccccc" />
</svg>
