<?xml version="1.0" encoding="UTF-8" standalone="no"?>
<svg
   xmlns:dc="http://purl.org/dc/elements/1.1/"
   xmlns:cc="http://creativecommons.org/ns#"
   xmlns:rdf="http://www.w3.org/1999/02/22-rdf-syntax-ns#"
   xmlns:svg="http://www.w3.org/2000/svg"
   xmlns="http://www.w3.org/2000/svg"
   xmlns:xlink="http://www.w3.org/1999/xlink"
   xmlns:sodipodi="http://sodipodi.sourceforge.net/DTD/sodipodi-0.dtd"
   xmlns:inkscape="http://www.inkscape.org/namespaces/inkscape"
   width="32"
   height="32"
   version="1"
   id="svg6314"
   sodipodi:docname="application-sql.svg"
   inkscape:version="0.92.5 (2060ec1f9f, 2020-04-08)">
  <metadata
     id="metadata6320">
    <rdf:RDF>
      <cc:Work
         rdf:about="">
        <dc:format>image/svg+xml</dc:format>
        <dc:type
           rdf:resource="http://purl.org/dc/dcmitype/StillImage" />
        <dc:title></dc:title>
      </cc:Work>
    </rdf:RDF>
  </metadata>
  <defs
     id="defs6318">
    <linearGradient
       inkscape:collect="always"
       id="linearGradient5569">
      <stop
         style="stop-color:#e6e6e6;stop-opacity:1;"
         offset="0"
         id="stop5565" />
      <stop
         style="stop-color:#f0f0f0;stop-opacity:1"
         offset="1"
         id="stop5567" />
    </linearGradient>
    <linearGradient
       inkscape:collect="always"
       xlink:href="#linearGradient5569"
       id="linearGradient5571"
       x1="24.179562"
       y1="44.134567"
       x2="22.166527"
       y2="4.0092521"
       gradientUnits="userSpaceOnUse"
       gradientTransform="matrix(0.75000001,0,0,0.7,-2,-0.8)" />
  </defs>
  <sodipodi:namedview
     pagecolor="#ffffff"
     bordercolor="#666666"
     borderopacity="1"
     objecttolerance="10"
     gridtolerance="10"
     guidetolerance="10"
     inkscape:pageopacity="0"
     inkscape:pageshadow="2"
     inkscape:window-width="1920"
     inkscape:window-height="1021"
     id="namedview6316"
     showgrid="false"
     inkscape:zoom="13.906433"
     inkscape:cx="-6.2288541"
     inkscape:cy="8.2527385"
     inkscape:window-x="0"
     inkscape:window-y="25"
     inkscape:window-maximized="1"
     inkscape:current-layer="svg6314" />
  <path
     inkscape:connector-curvature="0"
     style="opacity:0.2;fill:#000000;fill-opacity:1;stroke:none;stroke-width:1.12688565"
     d="M 4,3 V 31 H 28 V 10 L 20.5,3 Z"
     id="rect5540-8" />
  <path
     style="opacity:1;fill:url(#linearGradient5571);fill-opacity:1;stroke:none;stroke-width:1.12688565"
     d="M 4,2 V 30 H 28 V 9 L 20.5,2 Z"
     id="rect5540"
     inkscape:connector-curvature="0" />
  <path
     style="opacity:0.2;fill:#000000;fill-opacity:1;stroke:none;stroke-width:0.72456884px;stroke-linecap:butt;stroke-linejoin:miter;stroke-opacity:1"
     d="M 20.5,2 V 9 H 28 Z"
     id="path5546-4"
     inkscape:connector-curvature="0" />
  <path
     inkscape:connector-curvature="0"
     style="fill:#e81d62;stroke-width:1.39999998;fill-opacity:1"
     d="m 15.998606,12 c -2.34906,0 -4.355649,0.724598 -5.187109,1.75 -0.06982,0.08609 -0.133252,0.172396 -0.185938,0.2625 -0.05005,0.08562 -0.09206,0.173698 -0.125776,0.2625 a 5.6,2.8 0 0 0 -0.02461,0.08203 c -0.01919,0.06019 -0.04057,0.11907 -0.05195,0.180468 a 5.6,2.8 0 0 0 -0.02461,0.262506 c 3.08e-4,0.09099 0.01218,0.183221 0.03007,0.273437 a 5.6,2.8 0 0 0 0.07657,0.2625 5.6,2.8 0 0 0 0.12852,0.259766 5.6,2.8 0 0 0 0.177733,0.254297 5.6,2.8 0 0 0 5.187109,1.75 5.6,2.8 0 0 0 5.187109,-1.75 5.6,2.8 0 0 0 0.0028,0 5.6,2.8 0 0 0 0.150391,-0.21875 c 0.009,-0.0142 0.02164,-0.02677 0.03007,-0.04102 a 5.6,2.8 0 0 0 0.09023,-0.185937 c 0.01302,-0.02929 0.02985,-0.05802 0.04102,-0.0875 a 5.6,2.8 0 0 0 0.04648,-0.15586 c 0.01078,-0.04106 0.02295,-0.08176 0.03007,-0.123046 a 5.6,2.8 0 0 0 0.02461,-0.235157 5.6,2.8 0 0 0 -0.03007,-0.281641 c -0.0546,-0.2702 -0.186813,-0.526159 -0.382813,-0.768359 -0.8316,-1.0248 -2.837909,-1.75 -5.187109,-1.75 z m -5.187109,5.6 c -0.2716,0.364 -0.411491,0.753703 -0.412891,1.145703 0,1.687 2.5074,3.054297 5.6,3.054297 3.0926,0 5.6,-1.367297 5.6,-3.054297 -0.0014,-0.392 -0.141291,-0.781703 -0.412891,-1.145703 -0.8554,1.1536 -2.90651,2.0986 -5.187109,2.1 -2.2806,-0.0014 -4.331709,-0.9464 -5.187109,-2.1 z m 0,4.2 c -0.2716,0.364 -0.411491,0.753703 -0.412891,1.145703 0,1.687 2.5074,3.054297 5.6,3.054297 3.0926,0 5.6,-1.367297 5.6,-3.054297 -0.0014,-0.392 -0.141291,-0.781703 -0.412891,-1.145703 -0.8554,1.1536 -2.90651,2.0986 -5.187109,2.1 -2.2806,-0.0014 -4.331709,-0.9464 -5.187109,-2.1 z"
     id="path12" />
</svg>
