<?xml version="1.0" encoding="UTF-8" standalone="no"?>
<svg
   xmlns:dc="http://purl.org/dc/elements/1.1/"
   xmlns:cc="http://creativecommons.org/ns#"
   xmlns:rdf="http://www.w3.org/1999/02/22-rdf-syntax-ns#"
   xmlns:svg="http://www.w3.org/2000/svg"
   xmlns="http://www.w3.org/2000/svg"
   xmlns:xlink="http://www.w3.org/1999/xlink"
   xmlns:sodipodi="http://sodipodi.sourceforge.net/DTD/sodipodi-0.dtd"
   xmlns:inkscape="http://www.inkscape.org/namespaces/inkscape"
   width="32"
   height="32"
   version="1"
   id="svg6314"
   sodipodi:docname="application-x-desktop.svg"
   inkscape:version="0.92.5 (2060ec1f9f, 2020-04-08)">
  <metadata
     id="metadata6320">
    <rdf:RDF>
      <cc:Work
         rdf:about="">
        <dc:format>image/svg+xml</dc:format>
        <dc:type
           rdf:resource="http://purl.org/dc/dcmitype/StillImage" />
        <dc:title></dc:title>
      </cc:Work>
    </rdf:RDF>
  </metadata>
  <defs
     id="defs6318">
    <linearGradient
       inkscape:collect="always"
       id="linearGradient5569">
      <stop
         style="stop-color:#e6e6e6;stop-opacity:1;"
         offset="0"
         id="stop5565" />
      <stop
         style="stop-color:#f0f0f0;stop-opacity:1"
         offset="1"
         id="stop5567" />
    </linearGradient>
    <linearGradient
       inkscape:collect="always"
       xlink:href="#linearGradient5569"
       id="linearGradient826"
       x1="-24.521025"
       y1="6.5710678"
       x2="15.478975"
       y2="6.5710678"
       gradientUnits="userSpaceOnUse"
       gradientTransform="matrix(0.7,0,0,0.7,-12.835282,11.400252)" />
  </defs>
  <sodipodi:namedview
     pagecolor="#ffffff"
     bordercolor="#666666"
     borderopacity="1"
     objecttolerance="10"
     gridtolerance="10"
     guidetolerance="10"
     inkscape:pageopacity="0"
     inkscape:pageshadow="2"
     inkscape:window-width="1920"
     inkscape:window-height="1021"
     id="namedview6316"
     showgrid="false"
     inkscape:zoom="13.906433"
     inkscape:cx="18.004535"
     inkscape:cy="4.8010985"
     inkscape:window-x="0"
     inkscape:window-y="25"
     inkscape:window-maximized="1"
     inkscape:current-layer="svg6314" />
  <rect
     style="opacity:0.2;fill:#000000;fill-opacity:1;stroke:none;stroke-width:0.51121062;stroke-miterlimit:4;stroke-dasharray:none;stroke-opacity:1"
     id="rect818-6"
     width="28"
     height="28"
     x="-31"
     y="2"
     transform="rotate(-90)"
     rx="2.4161479"
     ry="2.4161479" />
  <rect
     style="opacity:1;fill:url(#linearGradient826);fill-opacity:1;stroke:none;stroke-width:0.51121062;stroke-miterlimit:4;stroke-dasharray:none;stroke-opacity:1"
     id="rect818"
     width="28"
     height="28"
     x="-30"
     y="2"
     transform="rotate(-90)"
     rx="2.4161479"
     ry="2.4161479" />
  <path
     style="fill:#646464;fill-opacity:1;stroke-width:0.29978144"
     d="m 15.580495,24.4 c -0.929364,0 -1.677436,-0.749162 -1.677436,-1.679882 v -0.7875 a 6.2908255,6.3000003 0 0 1 -1.984021,-1.147852 l -0.681622,0.39375 c -0.804855,0.46536 -1.827094,0.190793 -2.291777,-0.615234 L 8.526134,19.836719 C 8.061452,19.030691 8.335619,18.006962 9.140473,17.541602 L 9.819171,17.149024 A 6.2908255,6.3000003 0 0 1 9.709173,16 6.2908255,6.3000003 0 0 1 9.819171,14.850977 L 9.140473,14.458398 C 8.335619,13.993038 8.061452,12.969309 8.526134,12.163282 l 0.419505,-0.726563 c 0.464683,-0.806028 1.486922,-1.080594 2.291777,-0.615234 l 0.676941,0.391406 a 6.2908255,6.3000003 0 0 1 1.988702,-1.14375 V 9.2798831 C 13.903059,8.3491631 14.651131,7.6 15.580495,7.6 h 0.839011 c 0.929365,0 1.677436,0.7491631 1.677436,1.6798831 V 10.07207 a 6.2908255,6.3000003 0 0 1 1.98402,1.143164 l 0.681624,-0.393749 c 0.804853,-0.46536 1.827092,-0.190794 2.291775,0.615234 l 0.419505,0.726563 c 0.464682,0.806027 0.190514,1.829756 -0.614339,2.295116 l -0.678698,0.392579 A 6.2908255,6.3000003 0 0 1 22.290826,16 6.2908255,6.3000003 0 0 1 22.180829,17.149024 l 0.678698,0.392578 c 0.804854,0.46536 1.079021,1.489089 0.614339,2.295117 l -0.419505,0.726563 c -0.464683,0.806027 -1.486922,1.080594 -2.291775,0.615234 l -0.676943,-0.391407 a 6.2908255,6.3000003 0 0 1 -1.988701,1.144337 v 0.788672 c 0,0.93072 -0.748071,1.679882 -1.677436,1.679882 z M 16,19.599414 c 1.985271,0 3.594758,-1.611833 3.594758,-3.6 C 19.594758,14.011248 17.985271,12.4 16,12.4 c -1.985271,0 -3.594757,1.611248 -3.594757,3.599414 0,1.988167 1.609486,3.6 3.594757,3.6 z"
     id="path4"
     inkscape:connector-curvature="0" />
</svg>
