<?xml version="1.0" encoding="UTF-8" standalone="no"?>
<svg
   xmlns:dc="http://purl.org/dc/elements/1.1/"
   xmlns:cc="http://creativecommons.org/ns#"
   xmlns:rdf="http://www.w3.org/1999/02/22-rdf-syntax-ns#"
   xmlns:svg="http://www.w3.org/2000/svg"
   xmlns="http://www.w3.org/2000/svg"
   xmlns:xlink="http://www.w3.org/1999/xlink"
   xmlns:sodipodi="http://sodipodi.sourceforge.net/DTD/sodipodi-0.dtd"
   xmlns:inkscape="http://www.inkscape.org/namespaces/inkscape"
   inkscape:version="1.0 (4035a4fb49, 2020-05-01)"
   sodipodi:docname="application-x-srt.svg"
   id="svg6314"
   version="1"
   height="32"
   width="32">
  <metadata
     id="metadata6320">
    <rdf:RDF>
      <cc:Work
         rdf:about="">
        <dc:format>image/svg+xml</dc:format>
        <dc:type
           rdf:resource="http://purl.org/dc/dcmitype/StillImage" />
        <dc:title></dc:title>
      </cc:Work>
    </rdf:RDF>
  </metadata>
  <defs
     id="defs6318">
    <linearGradient
       id="linearGradient5569"
       inkscape:collect="always">
      <stop
         id="stop5565"
         offset="0"
         style="stop-color:#e6e6e6;stop-opacity:1;" />
      <stop
         id="stop5567"
         offset="1"
         style="stop-color:#f0f0f0;stop-opacity:1" />
    </linearGradient>
    <linearGradient
       gradientTransform="matrix(0.75000001,0,0,0.7,-2,-0.8)"
       gradientUnits="userSpaceOnUse"
       y2="4.0092521"
       x2="22.166527"
       y1="44.134567"
       x1="24.179562"
       id="linearGradient5571"
       xlink:href="#linearGradient5569"
       inkscape:collect="always" />
  </defs>
  <sodipodi:namedview
     inkscape:document-rotation="0"
     inkscape:current-layer="svg6314"
     inkscape:window-maximized="1"
     inkscape:window-y="25"
     inkscape:window-x="0"
     inkscape:cy="23.376663"
     inkscape:cx="12.470084"
     inkscape:zoom="13.906433"
     showgrid="false"
     id="namedview6316"
     inkscape:window-height="1021"
     inkscape:window-width="1920"
     inkscape:pageshadow="2"
     inkscape:pageopacity="0"
     guidetolerance="10"
     gridtolerance="10"
     objecttolerance="10"
     borderopacity="1"
     bordercolor="#666666"
     pagecolor="#ffffff" />
  <path
     id="rect5540-8"
     d="M 4,3 V 31 H 28 V 10 L 20.5,3 Z"
     style="opacity:0.2;fill:#000000;fill-opacity:1;stroke:none;stroke-width:1.12688565"
     inkscape:connector-curvature="0" />
  <path
     inkscape:connector-curvature="0"
     id="rect5540"
     d="M 4,2 V 30 H 28 V 9 L 20.5,2 Z"
     style="opacity:1;fill:url(#linearGradient5571);fill-opacity:1;stroke:none;stroke-width:1.12688565" />
  <path
     inkscape:connector-curvature="0"
     id="path5546-4"
     d="M 20.5,2 V 9 H 28 Z"
     style="opacity:0.2;fill:#000000;fill-opacity:1;stroke:none;stroke-width:0.72456884px;stroke-linecap:butt;stroke-linejoin:miter;stroke-opacity:1" />
  <path
     inkscape:connector-curvature="0"
     id="rect2"
     d="M 8.8,12 C 8.356792,12 8.0000001,12.356465 8.0000001,12.799665 V 27.199777 C 8.0000001,27.642977 8.3567921,28 8.8,28 H 23.2 C 23.643208,28 24,27.642977 24,27.199777 V 12.799665 C 24,12.356465 23.643208,12 23.2,12 Z m 0,0.799665 h 1.6 v 1.600447 H 8.8 Z m 3.2,0 h 1.6 v 1.600447 H 12 Z m 3.2,0 h 1.6 v 1.600447 h -1.6 z m 3.2,0 H 20 v 1.600447 h -1.6 z m 3.2,0 h 1.6 v 1.600447 H 21.6 Z M 8.8,25.599889 h 1.6 v 1.599888 H 8.8 Z m 3.2,0 h 1.6 v 1.599888 H 12 Z m 3.2,0 h 1.6 v 1.599888 h -1.6 z m 3.2,0 H 20 v 1.599888 h -1.6 z m 3.2,0 h 1.6 v 1.599888 h -1.6 z"
     style="fill:#000000;fill-opacity:1;stroke-width:0.400003" />
  <rect
     transform="scale(-1)"
     style="display:inline;opacity:1;fill:#9999cc;fill-opacity:1;stroke:none;stroke-width:1.11977;stroke-miterlimit:10;stroke-dasharray:none;stroke-opacity:1;paint-order:fill markers stroke"
     id="rect888"
     width="13.714286"
     height="9.1428576"
     x="-22.857143"
     y="-24.57143" />
  <path
     style="display:inline;opacity:0.15;fill:#000000;fill-opacity:1;stroke:none;stroke-width:0.279942px;stroke-linecap:butt;stroke-linejoin:miter;stroke-opacity:1"
     d="m 22.857143,24.571428 v -3.392856 -3.392856 -2.357145 h -2.022857 -6.171429 l -5.5200001,2.535715 v 2.857143 3.214285 0.535714 h 6.3085721 z"
     id="path880-3"
     inkscape:connector-curvature="0" />
  <path
     inkscape:connector-curvature="0"
     style="display:inline;opacity:0.15;fill:#000000;fill-opacity:1;stroke:none;stroke-width:0.279942px;stroke-linecap:butt;stroke-linejoin:miter;stroke-opacity:1"
     d="M 22.857143,24.571428 V 21.178572 17.785714 15.428571 H 20.834286 L 9.1428569,20.821429 v 3.214285 0.535715 h 6.3085721 z"
     id="path880-3-8" />
  <path
     inkscape:connector-curvature="0"
     style="display:inline;opacity:0.15;fill:#000000;fill-opacity:1;stroke:none;stroke-width:0.279942px;stroke-linecap:butt;stroke-linejoin:miter;stroke-opacity:1"
     d="m 22.857143,24.571428 v -3.392856 -3.392858 l -13.7142861,6.25 v 0.535714 h 6.3085721 z"
     id="path880-3-7" />
  <path
     style="display:inline;opacity:0.15;fill:#000000;fill-opacity:1;stroke:none;stroke-width:0.279942px;stroke-linecap:butt;stroke-linejoin:miter;stroke-opacity:1"
     d="m 22.857143,24.571428 v -3.392856 l -7.405714,3.392856 z"
     id="path880-3-3"
     inkscape:connector-curvature="0" />
  <g
     transform="matrix(0.11493108,0,0,0.11493108,13.33888,19.896594)"
     style="font-style:normal;font-weight:normal;font-size:40px;line-height:1.25;font-family:sans-serif;letter-spacing:0px;word-spacing:0px;fill:#ffffff;fill-opacity:1;stroke:#ffffff;stroke-width:4.97192;stroke-miterlimit:4;stroke-dasharray:none;stroke-opacity:1"
     id="text867"
     aria-label="ABC">
    <path
       style="fill:#ffffff;fill-opacity:1;stroke:#ffffff;stroke-width:4.97192;stroke-miterlimit:4;stroke-dasharray:none;stroke-opacity:1"
       id="path869"
       d="M -2.7223072,-11.804079 -8.0738697,2.7076397 H 2.6487865 Z m -2.2265625,-3.886719 h 4.47265624 L 10.637068,13.469358 H 6.5355053 L 3.8792553,5.9888897 H -9.265276 l -2.65625,7.4804683 h -4.160156 z" />
    <path
       style="fill:#ffffff;fill-opacity:1;stroke:#ffffff;stroke-width:4.97192;stroke-miterlimit:4;stroke-dasharray:none;stroke-opacity:1"
       id="path871"
       d="M 18.840193,-0.45642281 V 10.227171 h 6.328125 q 3.183594,0 4.707031,-1.3085938 1.542969,-1.328125 1.542969,-4.0429688 0,-2.734375 -1.542969,-4.02343746 -1.523437,-1.30859375 -4.707031,-1.30859375 z m 0,-11.99218719 v 8.7890622 h 5.839844 q 2.890625,0 4.296875,-1.0742188 1.425781,-1.09375 1.425781,-3.3203125 0,-2.2070309 -1.425781,-3.3007809 -1.40625,-1.09375 -4.296875,-1.09375 z m -3.945313,-3.242188 h 10.078125 q 4.511719,0 6.953125,1.875 2.441407,1.875 2.441407,5.3320314 0,2.6757813 -1.25,4.2578125 -1.25,1.5820313 -3.671875,1.9726563 2.910156,0.625 4.511718,2.61718749 1.621094,1.97265621 1.621094,4.94140621 0,3.90625 -2.65625,6.0351561 -2.65625,2.128906 -7.558594,2.128906 H 14.89488 Z" />
    <path
       style="fill:#ffffff;fill-opacity:1;stroke:#ffffff;stroke-width:4.97192;stroke-miterlimit:4;stroke-dasharray:none;stroke-opacity:1"
       id="path873"
       d="m 63.469099,-13.444704 v 4.1601562 q -1.992187,-1.8554692 -4.257812,-2.7734372 -2.246094,-0.917969 -4.785157,-0.917969 -5,0 -7.65625,3.0664062 -2.65625,3.046875 -2.65625,8.828125 0,5.7617187 2.65625,8.828125 2.65625,3.0468748 7.65625,3.0468748 2.539063,0 4.785157,-0.9179686 2.265625,-0.9179687 4.257812,-2.7734375 v 4.1210941 q -2.070312,1.40625 -4.394531,2.109375 -2.304688,0.703125 -4.882813,0.703125 -6.621093,0 -10.429687,-4.0429691 -3.808594,-4.0625 -3.808594,-11.0742187 0,-7.03125 3.808594,-11.0742192 3.808594,-4.0625 10.429687,-4.0625 2.617188,0 4.921875,0.703125 2.324219,0.683594 4.355469,2.070313 z" />
  </g>
</svg>
