<?xml version="1.0" encoding="UTF-8" standalone="no"?>
<svg
   xmlns:dc="http://purl.org/dc/elements/1.1/"
   xmlns:cc="http://creativecommons.org/ns#"
   xmlns:rdf="http://www.w3.org/1999/02/22-rdf-syntax-ns#"
   xmlns:svg="http://www.w3.org/2000/svg"
   xmlns="http://www.w3.org/2000/svg"
   xmlns:xlink="http://www.w3.org/1999/xlink"
   xmlns:sodipodi="http://sodipodi.sourceforge.net/DTD/sodipodi-0.dtd"
   xmlns:inkscape="http://www.inkscape.org/namespaces/inkscape"
   width="32"
   height="32"
   version="1"
   id="svg6314"
   sodipodi:docname="application-x-javascript.svg"
   inkscape:version="0.92.5 (2060ec1f9f, 2020-04-08)">
  <metadata
     id="metadata6320">
    <rdf:RDF>
      <cc:Work
         rdf:about="">
        <dc:format>image/svg+xml</dc:format>
        <dc:type
           rdf:resource="http://purl.org/dc/dcmitype/StillImage" />
        <dc:title></dc:title>
      </cc:Work>
    </rdf:RDF>
  </metadata>
  <defs
     id="defs6318">
    <linearGradient
       inkscape:collect="always"
       id="linearGradient5569">
      <stop
         style="stop-color:#e6e6e6;stop-opacity:1;"
         offset="0"
         id="stop5565" />
      <stop
         style="stop-color:#f0f0f0;stop-opacity:1"
         offset="1"
         id="stop5567" />
    </linearGradient>
    <linearGradient
       inkscape:collect="always"
       xlink:href="#linearGradient5569"
       id="linearGradient5571"
       x1="24.179562"
       y1="44.134567"
       x2="22.166527"
       y2="4.0092521"
       gradientUnits="userSpaceOnUse"
       gradientTransform="matrix(0.75000001,0,0,0.7,-2,-0.8)" />
  </defs>
  <sodipodi:namedview
     pagecolor="#ffffff"
     bordercolor="#666666"
     borderopacity="1"
     objecttolerance="10"
     gridtolerance="10"
     guidetolerance="10"
     inkscape:pageopacity="0"
     inkscape:pageshadow="2"
     inkscape:window-width="1920"
     inkscape:window-height="1021"
     id="namedview6316"
     showgrid="false"
     inkscape:zoom="12.859375"
     inkscape:cx="6.3105918"
     inkscape:cy="7.1623535"
     inkscape:window-x="0"
     inkscape:window-y="25"
     inkscape:window-maximized="1"
     inkscape:current-layer="svg6314" />
  <path
     inkscape:connector-curvature="0"
     style="opacity:0.2;fill:#000000;fill-opacity:1;stroke:none;stroke-width:1.12688565"
     d="M 4,3 V 31 H 28 V 10 L 20.5,3 Z"
     id="rect5540-8" />
  <path
     style="opacity:1;fill:url(#linearGradient5571);fill-opacity:1;stroke:none;stroke-width:1.12688565"
     d="M 4,2 V 30 H 28 V 9 L 20.5,2 Z"
     id="rect5540"
     inkscape:connector-curvature="0" />
  <g
     id="g853"
     transform="matrix(1.0909091,0,0,1,-1.4545454,0)">
    <g
       id="g868">
      <rect
         style="opacity:0.2;fill:#000000;fill-opacity:1;stroke:none;stroke-width:0.60294974"
         id="rect6256"
         width="6.875"
         height="0.69999999"
         x="8"
         y="5.3000002" />
      <rect
         style="opacity:0.2;fill:#000000;fill-opacity:1;stroke:none;stroke-width:0.83366132"
         id="rect6256-6-0"
         width="13.142857"
         height="0.69999999"
         x="8"
         y="20.200001" />
      <rect
         style="opacity:0.2;fill:#000000;fill-opacity:1;stroke:none;stroke-width:0.91982406"
         id="rect6256-6-1"
         width="16"
         height="0.69999999"
         x="8"
         y="16" />
      <rect
         style="opacity:0.2;fill:#000000;fill-opacity:1;stroke:none;stroke-width:0.83366132"
         id="rect6256-6-8"
         width="13.142857"
         height="0.69999999"
         x="8"
         y="14.6" />
      <rect
         style="opacity:0.2;fill:#000000;fill-opacity:1;stroke:none;stroke-width:0.81533688"
         id="rect6256-6-14"
         width="12.571428"
         height="0.69999999"
         x="8"
         y="17.4" />
      <rect
         style="opacity:0.2;fill:#000000;fill-opacity:1;stroke:none;stroke-width:0.91982406"
         id="rect6256-6-148"
         width="16"
         height="0.69999999"
         x="8"
         y="10.4" />
      <rect
         style="opacity:0.2;fill:#000000;fill-opacity:1;stroke:none;stroke-width:0.67324221"
         id="rect6256-6-16"
         width="8.5714283"
         height="0.69999999"
         x="8"
         y="13.200001" />
      <rect
         style="opacity:0.2;fill:#000000;fill-opacity:1;stroke:none;stroke-width:0.88636464"
         id="rect6256-6-9"
         width="14.857143"
         height="0.69999999"
         x="8"
         y="11.799999" />
      <rect
         style="opacity:0.2;fill:#000000;fill-opacity:1;stroke:none;stroke-width:0.49166664"
         id="rect6256-6-06"
         width="4.5714283"
         height="0.69999999"
         x="8"
         y="9" />
      <rect
         style="opacity:0.2;fill:#000000;fill-opacity:1;stroke:none;stroke-width:0.67324221"
         id="rect6256-6-0-7"
         width="8.5714283"
         height="0.69999999"
         x="8"
         y="21.599998" />
      <rect
         style="opacity:0.2;fill:#000000;fill-opacity:1;stroke:none;stroke-width:0.91982406"
         id="rect6256-6-0-1"
         width="16"
         height="0.69999999"
         x="8"
         y="23" />
      <rect
         style="opacity:0.2;fill:#000000;fill-opacity:1;stroke:none;stroke-width:0.67324221"
         id="rect6256-6-0-9"
         width="8.5714283"
         height="0.69999999"
         x="14.857143"
         y="27.200001" />
      <rect
         style="opacity:0.2;fill:#000000;fill-opacity:1;stroke:none;stroke-width:0.91982406"
         id="rect6256-6-0-99"
         width="16"
         height="0.69999999"
         x="8"
         y="18.799999" />
    </g>
  </g>
  <rect
     style="opacity:1;fill:#ffcc00;fill-opacity:1;stroke:none;stroke-width:0.42824513"
     id="rect7379"
     width="18"
     height="8"
     x="0"
     y="8" />
  <path
     style="opacity:0.2;fill:#000000;fill-opacity:1;stroke:none;stroke-width:0.72456884px;stroke-linecap:butt;stroke-linejoin:miter;stroke-opacity:1"
     d="M 20.5,2 V 9 H 28 Z"
     id="path5546-4"
     inkscape:connector-curvature="0" />
  <path
     sodipodi:type="inkscape:offset"
     inkscape:radius="0"
     inkscape:original="M -18.082031 -0.81445312 L -18.082031 26.314453 C -18.082031 28.840495 -18.440104 30.591797 -19.15625 31.568359 C -19.872396 32.544922 -21.102865 33.033203 -22.847656 33.033203 L -24.078125 33.033203 L -24.078125 36.353516 L -22.574219 36.353516 C -19.61849 36.353516 -17.476562 35.559245 -16.148438 33.970703 C -14.807292 32.382161 -14.136719 29.830078 -14.136719 26.314453 L -14.136719 -0.81445312 L -18.082031 -0.81445312 z M 0.51171875 5.9433594 C -2.1705729 5.9433594 -4.2408854 6.5032552 -5.6992188 7.6230469 C -7.1575521 8.7428385 -7.8867188 10.33138 -7.8867188 12.388672 C -7.8867188 14.08138 -7.3919271 15.416016 -6.4023438 16.392578 C -5.4127604 17.35612 -3.8046875 18.072266 -1.578125 18.541016 L -0.328125 18.833984 C 1.8984375 19.315755 3.3372396 19.817057 3.9882812 20.337891 C 4.6523438 20.858724 4.984375 21.607422 4.984375 22.583984 C 4.984375 23.638672 4.5286458 24.458984 3.6171875 25.044922 C 2.7057292 25.617839 1.4036458 25.904297 -0.2890625 25.904297 C -1.5520833 25.904297 -2.828125 25.735026 -4.1171875 25.396484 C -5.40625 25.044922 -6.7148438 24.524089 -8.0429688 23.833984 L -8.0429688 27.544922 C -6.6367188 28.000651 -5.3020833 28.339193 -4.0390625 28.560547 C -2.7630208 28.794922 -1.5390625 28.912109 -0.3671875 28.912109 C 2.4453125 28.912109 4.6523438 28.319661 6.2539062 27.134766 C 7.8684896 25.94987 8.6757812 24.341797 8.6757812 22.310547 C 8.6757812 20.526693 8.1354167 19.139974 7.0546875 18.150391 C 5.9869792 17.147786 4.1770833 16.373047 1.625 15.826172 L 0.39453125 15.552734 C -1.5325521 15.123047 -2.8151042 14.673828 -3.453125 14.205078 C -4.0911458 13.723307 -4.4101562 13.065755 -4.4101562 12.232422 C -4.4101562 11.138672 -3.9674479 10.318359 -3.0820312 9.7714844 C -2.1835938 9.2246094 -0.84244792 8.9511719 0.94140625 8.9511719 C 2.1132812 8.9511719 3.2460938 9.0813802 4.3398438 9.3417969 C 5.4335938 9.6022135 6.4882812 9.9928385 7.5039062 10.513672 L 7.5039062 7.1152344 C 6.5143229 6.7246094 5.4335938 6.4316406 4.2617188 6.2363281 C 3.0898438 6.0410156 1.8398438 5.9433594 0.51171875 5.9433594 z "
     style="font-style:normal;font-weight:normal;font-size:40px;line-height:1.25;font-family:sans-serif;letter-spacing:0px;word-spacing:0px;fill:#000000;fill-opacity:1;stroke:none"
     id="text862"
     d="M -18.082031,-0.81445312 V 26.314453 c 0,2.526042 -0.358073,4.277344 -1.074219,5.253906 -0.716146,0.976563 -1.946615,1.464844 -3.691406,1.464844 h -1.230469 v 3.320313 h 1.503906 c 2.955729,0 5.097657,-0.794271 6.425781,-2.382813 1.341146,-1.588542 2.011719,-4.140625 2.011719,-7.65625 V -0.81445312 Z M 0.51171875,5.9433594 c -2.68229165,0 -4.75260415,0.5598958 -6.21093755,1.6796875 -1.4583333,1.1197916 -2.1875,2.7083331 -2.1875,4.7656251 0,1.692708 0.4947917,3.027344 1.484375,4.003906 0.9895834,0.963542 2.5976563,1.679688 4.8242188,2.148438 l 1.25,0.292968 c 2.2265625,0.481771 3.6653646,0.983073 4.3164062,1.503907 0.6640626,0.520833 0.9960938,1.269531 0.9960938,2.246093 0,1.054688 -0.4557292,1.875 -1.3671875,2.460938 -0.9114583,0.572917 -2.2135417,0.859375 -3.90625,0.859375 -1.2630208,0 -2.5390625,-0.169271 -3.828125,-0.507813 -1.2890625,-0.351562 -2.5976563,-0.872395 -3.9257813,-1.5625 v 3.710938 c 1.40625,0.455729 2.7408855,0.794271 4.0039063,1.015625 1.2760417,0.234375 2.5,0.351562 3.671875,0.351562 2.8125,0 5.0195313,-0.592448 6.6210937,-1.777343 1.6145834,-1.184896 2.421875,-2.792969 2.421875,-4.824219 0,-1.783854 -0.5403645,-3.170573 -1.6210937,-4.160156 C 5.9869792,17.147786 4.1770833,16.373047 1.625,15.826172 L 0.39453125,15.552734 C -1.5325521,15.123047 -2.8151042,14.673828 -3.453125,14.205078 c -0.6380208,-0.481771 -0.9570312,-1.139323 -0.9570312,-1.972656 0,-1.09375 0.4427083,-1.914063 1.328125,-2.4609376 0.8984374,-0.546875 2.23958328,-0.8203125 4.02343745,-0.8203125 1.17187495,0 2.30468755,0.1302083 3.39843755,0.390625 1.09375,0.2604166 2.1484374,0.6510416 3.1640624,1.1718751 V 7.1152344 C 6.5143229,6.7246094 5.4335938,6.4316406 4.2617188,6.2363281 3.0898438,6.0410156 1.8398438,5.9433594 0.51171875,5.9433594 Z"
     transform="matrix(0.16142932,0,0,0.16142932,10.243195,9.1314766)" />
</svg>
