<?xml version="1.0" encoding="UTF-8" standalone="no"?>
<svg
   xmlns:dc="http://purl.org/dc/elements/1.1/"
   xmlns:cc="http://creativecommons.org/ns#"
   xmlns:rdf="http://www.w3.org/1999/02/22-rdf-syntax-ns#"
   xmlns:svg="http://www.w3.org/2000/svg"
   xmlns="http://www.w3.org/2000/svg"
   xmlns:xlink="http://www.w3.org/1999/xlink"
   xmlns:sodipodi="http://sodipodi.sourceforge.net/DTD/sodipodi-0.dtd"
   xmlns:inkscape="http://www.inkscape.org/namespaces/inkscape"
   width="32"
   height="32"
   version="1"
   id="svg6314"
   sodipodi:docname="text-x-python.svg"
   inkscape:version="0.92.5 (2060ec1f9f, 2020-04-08)">
  <metadata
     id="metadata6320">
    <rdf:RDF>
      <cc:Work
         rdf:about="">
        <dc:format>image/svg+xml</dc:format>
        <dc:type
           rdf:resource="http://purl.org/dc/dcmitype/StillImage" />
        <dc:title></dc:title>
      </cc:Work>
    </rdf:RDF>
  </metadata>
  <defs
     id="defs6318">
    <linearGradient
       inkscape:collect="always"
       id="linearGradient5569">
      <stop
         style="stop-color:#e6e6e6;stop-opacity:1;"
         offset="0"
         id="stop5565" />
      <stop
         style="stop-color:#f0f0f0;stop-opacity:1"
         offset="1"
         id="stop5567" />
    </linearGradient>
    <linearGradient
       inkscape:collect="always"
       xlink:href="#linearGradient5569"
       id="linearGradient5571"
       x1="24.179562"
       y1="44.134567"
       x2="22.166527"
       y2="4.0092521"
       gradientUnits="userSpaceOnUse"
       gradientTransform="matrix(0.75000001,0,0,0.7,-2,-0.8)" />
    <radialGradient
       gradientTransform="matrix(-1.6046771e-7,6.5423185,-8.0318783,-1.9638279e-7,103.96362,-59.262967)"
       gradientUnits="userSpaceOnUse"
       xlink:href="#linearGradient2867-449-88-871-390-598-476-591-434-148-57-177-8-3"
       id="radialGradient3107"
       fy="9.9571075"
       fx="2.8021708"
       r="12.671875"
       cy="9.9571075"
       cx="3.3324013" />
    <linearGradient
       id="linearGradient2867-449-88-871-390-598-476-591-434-148-57-177-8-3">
      <stop
         id="stop3750-1-0"
         style="stop-color:#90dbec;stop-opacity:1"
         offset="0" />
      <stop
         id="stop3752-3-7"
         style="stop-color:#55c1ec;stop-opacity:1"
         offset="0.26238" />
      <stop
         id="stop3754-1-8"
         style="stop-color:#3689e6;stop-opacity:1"
         offset="0.704952" />
      <stop
         id="stop3756-1-6"
         style="stop-color:#2b63a0;stop-opacity:1"
         offset="1" />
    </linearGradient>
    <radialGradient
       r="12.671875"
       fy="9.9571075"
       fx="4.6097999"
       cy="9.9571075"
       cx="5.1400304"
       gradientTransform="matrix(0,4.834206,-5.9348621,0,83.083403,-50.483217)"
       gradientUnits="userSpaceOnUse"
       id="radialGradient4528-6"
       xlink:href="#linearGradient4530-1" />
    <linearGradient
       id="linearGradient4530-1">
      <stop
         offset="0"
         style="stop-color:#fff3cb;stop-opacity:1"
         id="stop4532-9" />
      <stop
         offset="0.26238"
         style="stop-color:#ffed8d;stop-opacity:1"
         id="stop4534-6" />
      <stop
         offset="0.66093999"
         style="stop-color:#ffde2f;stop-opacity:1"
         id="stop4536-5" />
      <stop
         offset="1"
         style="stop-color:#fbc02d;stop-opacity:1"
         id="stop4538-4" />
    </linearGradient>
  </defs>
  <sodipodi:namedview
     pagecolor="#ffffff"
     bordercolor="#666666"
     borderopacity="1"
     objecttolerance="10"
     gridtolerance="10"
     guidetolerance="10"
     inkscape:pageopacity="0"
     inkscape:pageshadow="2"
     inkscape:window-width="1920"
     inkscape:window-height="1021"
     id="namedview6316"
     showgrid="false"
     inkscape:zoom="18.185903"
     inkscape:cx="13.311603"
     inkscape:cy="9.6009673"
     inkscape:window-x="0"
     inkscape:window-y="25"
     inkscape:window-maximized="1"
     inkscape:current-layer="svg6314" />
  <path
     inkscape:connector-curvature="0"
     style="opacity:0.2;fill:#000000;fill-opacity:1;stroke:none;stroke-width:1.12688565"
     d="M 4,3 V 31 H 28 V 10 L 20.5,3 Z"
     id="rect5540-8" />
  <path
     style="opacity:1;fill:url(#linearGradient5571);fill-opacity:1;stroke:none;stroke-width:1.12688565"
     d="M 4,2 V 30 H 28 V 9 L 20.5,2 Z"
     id="rect5540"
     inkscape:connector-curvature="0" />
  <path
     style="opacity:0.2;fill:#000000;fill-opacity:1;stroke:none;stroke-width:0.72456884px;stroke-linecap:butt;stroke-linejoin:miter;stroke-opacity:1"
     d="M 20.5,2 V 9 H 28 Z"
     id="path5546-4"
     inkscape:connector-curvature="0" />
  <g
     transform="matrix(0.6552214,0,0,0.6552214,0.27468682,4.6752758)"
     id="g4210">
    <path
       inkscape:connector-curvature="0"
       id="path1948"
       style="color:#000000;clip-rule:nonzero;display:inline;overflow:visible;visibility:visible;opacity:1;isolation:auto;mix-blend-mode:normal;color-interpolation:sRGB;color-interpolation-filters:linearRGB;solid-color:#000000;solid-opacity:1;fill:#306d9f;fill-opacity:1;fill-rule:nonzero;stroke:none;stroke-width:1;stroke-linecap:butt;stroke-linejoin:miter;stroke-miterlimit:4;stroke-dasharray:none;stroke-dashoffset:0;stroke-opacity:1;marker:none;color-rendering:auto;image-rendering:auto;shape-rendering:auto;text-rendering:auto;enable-background:accumulate"
       d="m 23.856187,11.179206 c -0.995909,0.0047 -1.94698,0.08956 -2.783825,0.237644 -2.46524,0.435527 -2.912831,1.347122 -2.912832,3.028259 v 2.22027 h 5.825664 v 0.74009 H 18.15953 15.973209 c -1.6931,0 -3.175627,1.017651 -3.639342,2.953571 -0.534891,2.219014 -0.558616,3.603714 0,5.920721 0.414109,1.72469 1.403057,2.95357 3.096156,2.953571 h 2.002997 v -2.661609 c 0,-1.922855 1.663699,-3.618972 3.639342,-3.618973 h 5.818874 c 1.619769,0 2.912832,-1.333664 2.912832,-2.96036 v -5.547281 c 0,-1.578788 -1.331886,-2.764766 -2.912832,-3.028259 -1.000762,-0.16659 -2.039139,-0.242271 -3.035049,-0.237644 z m -3.150475,1.785722 c 0.601751,0 1.09316,0.499437 1.09316,1.113531 0,0.611916 -0.491409,1.10674 -1.09316,1.10674 -0.603908,0 -1.093161,-0.494824 -1.093161,-1.10674 0,-0.614094 0.489253,-1.113531 1.093161,-1.113531 z" />
    <path
       inkscape:connector-curvature="0"
       id="path1950-4-1"
       style="color:#000000;clip-rule:nonzero;display:inline;overflow:visible;visibility:visible;opacity:1;isolation:auto;mix-blend-mode:normal;color-interpolation:sRGB;color-interpolation-filters:linearRGB;solid-color:#000000;solid-opacity:1;fill:#f7cf2e;fill-opacity:1;fill-rule:nonzero;stroke:none;stroke-width:1;stroke-linecap:butt;stroke-linejoin:miter;stroke-miterlimit:4;stroke-dasharray:none;stroke-dashoffset:0;stroke-opacity:1;marker:none;color-rendering:auto;image-rendering:auto;shape-rendering:auto;text-rendering:auto;enable-background:accumulate"
       d="m 30.530579,17.405468 v 2.586927 c 0,2.005601 -1.70037,3.693656 -3.639346,3.693656 h -5.81887 c -1.593891,0 -2.912833,1.364154 -2.912834,2.960358 v 5.547285 c 0,1.57879 1.372863,2.507411 2.912834,2.960358 1.844078,0.542233 3.612448,0.640227 5.81887,0 1.466635,-0.424638 2.912832,-1.279228 2.912832,-2.960358 V 29.97342 h -5.818871 v -0.740084 h 5.818871 2.912832 c 1.693104,0 2.324018,-1.180975 2.912832,-2.953572 0.608223,-1.824862 0.582346,-3.579764 0,-5.920723 -0.418422,-1.685491 -1.217577,-2.953573 -2.912832,-2.953573 z m -3.272693,14.048135 c 0.603907,0 1.09316,0.494825 1.09316,1.106744 0,0.614092 -0.489253,1.11353 -1.09316,1.11353 -0.601755,0 -1.093159,-0.499438 -1.093159,-1.11353 0,-0.611919 0.491404,-1.106744 1.093159,-1.106744 z" />
  </g>
</svg>
