<?xml version="1.0" encoding="UTF-8" standalone="no"?>
<svg
   xmlns:dc="http://purl.org/dc/elements/1.1/"
   xmlns:cc="http://creativecommons.org/ns#"
   xmlns:rdf="http://www.w3.org/1999/02/22-rdf-syntax-ns#"
   xmlns:svg="http://www.w3.org/2000/svg"
   xmlns="http://www.w3.org/2000/svg"
   xmlns:xlink="http://www.w3.org/1999/xlink"
   xmlns:sodipodi="http://sodipodi.sourceforge.net/DTD/sodipodi-0.dtd"
   xmlns:inkscape="http://www.inkscape.org/namespaces/inkscape"
   width="32"
   height="32"
   version="1"
   id="svg6314"
   sodipodi:docname="text-css.svg"
   inkscape:version="0.92.5 (2060ec1f9f, 2020-04-08)">
  <metadata
     id="metadata6320">
    <rdf:RDF>
      <cc:Work
         rdf:about="">
        <dc:format>image/svg+xml</dc:format>
        <dc:type
           rdf:resource="http://purl.org/dc/dcmitype/StillImage" />
        <dc:title />
      </cc:Work>
    </rdf:RDF>
  </metadata>
  <defs
     id="defs6318">
    <linearGradient
       inkscape:collect="always"
       id="linearGradient5569">
      <stop
         style="stop-color:#e6e6e6;stop-opacity:1;"
         offset="0"
         id="stop5565" />
      <stop
         style="stop-color:#f0f0f0;stop-opacity:1"
         offset="1"
         id="stop5567" />
    </linearGradient>
    <linearGradient
       inkscape:collect="always"
       xlink:href="#linearGradient5569"
       id="linearGradient5571"
       x1="24.179562"
       y1="44.134567"
       x2="22.166527"
       y2="4.0092521"
       gradientUnits="userSpaceOnUse"
       gradientTransform="matrix(0.75000001,0,0,0.7,-2,-0.8)" />
  </defs>
  <sodipodi:namedview
     pagecolor="#ffffff"
     bordercolor="#666666"
     borderopacity="1"
     objecttolerance="10"
     gridtolerance="10"
     guidetolerance="10"
     inkscape:pageopacity="0"
     inkscape:pageshadow="2"
     inkscape:window-width="1920"
     inkscape:window-height="1021"
     id="namedview6316"
     showgrid="false"
     inkscape:zoom="12.859375"
     inkscape:cx="-5.5654944"
     inkscape:cy="7.6678213"
     inkscape:window-x="0"
     inkscape:window-y="25"
     inkscape:window-maximized="1"
     inkscape:current-layer="svg6314" />
  <path
     inkscape:connector-curvature="0"
     style="opacity:0.2;fill:#000000;fill-opacity:1;stroke:none;stroke-width:1.12688565"
     d="M 4,3 V 31 H 28 V 10 L 20.5,3 Z"
     id="rect5540-8" />
  <path
     style="opacity:1;fill:url(#linearGradient5571);fill-opacity:1;stroke:none;stroke-width:1.12688565"
     d="M 4,2 V 30 H 28 V 9 L 20.5,2 Z"
     id="rect5540"
     inkscape:connector-curvature="0" />
  <g
     id="g853"
     transform="matrix(1.0909091,0,0,1,-1.4545454,0)">
    <g
       id="g868">
      <rect
         style="opacity:0.2;fill:#000000;fill-opacity:1;stroke:none;stroke-width:0.60294974"
         id="rect6256"
         width="6.875"
         height="0.69999999"
         x="8"
         y="5.3000002" />
      <rect
         style="opacity:0.2;fill:#000000;fill-opacity:1;stroke:none;stroke-width:0.83366132"
         id="rect6256-6-0"
         width="13.142857"
         height="0.69999999"
         x="8"
         y="20.200001" />
      <rect
         style="opacity:0.2;fill:#000000;fill-opacity:1;stroke:none;stroke-width:0.91982406"
         id="rect6256-6-1"
         width="16"
         height="0.69999999"
         x="8"
         y="16" />
      <rect
         style="opacity:0.2;fill:#000000;fill-opacity:1;stroke:none;stroke-width:0.83366132"
         id="rect6256-6-8"
         width="13.142857"
         height="0.69999999"
         x="8"
         y="14.6" />
      <rect
         style="opacity:0.2;fill:#000000;fill-opacity:1;stroke:none;stroke-width:0.81533688"
         id="rect6256-6-14"
         width="12.571428"
         height="0.69999999"
         x="8"
         y="17.4" />
      <rect
         style="opacity:0.2;fill:#000000;fill-opacity:1;stroke:none;stroke-width:0.91982406"
         id="rect6256-6-148"
         width="16"
         height="0.69999999"
         x="8"
         y="10.4" />
      <rect
         style="opacity:0.2;fill:#000000;fill-opacity:1;stroke:none;stroke-width:0.67324221"
         id="rect6256-6-16"
         width="8.5714283"
         height="0.69999999"
         x="8"
         y="13.200001" />
      <rect
         style="opacity:0.2;fill:#000000;fill-opacity:1;stroke:none;stroke-width:0.88636464"
         id="rect6256-6-9"
         width="14.857143"
         height="0.69999999"
         x="8"
         y="11.799999" />
      <rect
         style="opacity:0.2;fill:#000000;fill-opacity:1;stroke:none;stroke-width:0.49166664"
         id="rect6256-6-06"
         width="4.5714283"
         height="0.69999999"
         x="8"
         y="9" />
      <rect
         style="opacity:0.2;fill:#000000;fill-opacity:1;stroke:none;stroke-width:0.67324221"
         id="rect6256-6-0-7"
         width="8.5714283"
         height="0.69999999"
         x="8"
         y="21.599998" />
      <rect
         style="opacity:0.2;fill:#000000;fill-opacity:1;stroke:none;stroke-width:0.91982406"
         id="rect6256-6-0-1"
         width="16"
         height="0.69999999"
         x="8"
         y="23" />
      <rect
         style="opacity:0.2;fill:#000000;fill-opacity:1;stroke:none;stroke-width:0.67324221"
         id="rect6256-6-0-9"
         width="8.5714283"
         height="0.69999999"
         x="14.857143"
         y="27.200001" />
      <rect
         style="opacity:0.2;fill:#000000;fill-opacity:1;stroke:none;stroke-width:0.91982406"
         id="rect6256-6-0-99"
         width="16"
         height="0.69999999"
         x="8"
         y="18.799999" />
    </g>
  </g>
  <rect
     style="opacity:1;fill:#002b36;fill-opacity:1;stroke:none;stroke-width:0.42824513"
     id="rect7379"
     width="18"
     height="8"
     x="0"
     y="8" />
  <path
     style="opacity:0.2;fill:#000000;fill-opacity:1;stroke:none;stroke-width:0.72456884px;stroke-linecap:butt;stroke-linejoin:miter;stroke-opacity:1"
     d="M 20.5,2 V 9 H 28 Z"
     id="path5546-4"
     inkscape:connector-curvature="0" />
  <path
     sodipodi:type="inkscape:offset"
     inkscape:radius="0"
     inkscape:original="M -4.4335938 -1.3417969 C -8.8476562 -1.3417969 -12.324219 0.012369792 -14.863281 2.7207031 C -17.402344 5.4160156 -18.671875 9.1074219 -18.671875 13.794922 C -18.671875 18.469401 -17.402344 22.160807 -14.863281 24.869141 C -12.324219 27.564453 -8.8476562 28.912109 -4.4335938 28.912109 C -2.7148438 28.912109 -1.0872396 28.677734 0.44921875 28.208984 C 1.9986979 27.740234 3.4635417 27.037109 4.84375 26.099609 L 4.84375 21.978516 C 3.515625 23.215495 2.0963542 24.139974 0.5859375 24.751953 C -0.91145833 25.363932 -2.5065104 25.669922 -4.1992188 25.669922 C -7.5325521 25.669922 -10.084635 24.654297 -11.855469 22.623047 C -13.626302 20.578776 -14.511719 17.636068 -14.511719 13.794922 C -14.511719 9.9407552 -13.626302 6.9980469 -11.855469 4.9667969 C -10.084635 2.922526 -7.5325521 1.9003906 -4.1992188 1.9003906 C -2.5065104 1.9003906 -0.91145833 2.2063802 0.5859375 2.8183594 C 2.0963542 3.4303385 3.515625 4.3548177 4.84375 5.5917969 L 4.84375 1.4316406 C 3.4895833 0.50716146 2.0377604 -0.18294271 0.48828125 -0.63867188 C -1.0481771 -1.1074219 -2.6888021 -1.3417969 -4.4335938 -1.3417969 z M 19.882812 -1.3417969 C 16.692708 -1.3417969 14.186198 -0.59960938 12.363281 0.88476562 C 10.553385 2.3691406 9.6484375 4.4003906 9.6484375 6.9785156 C 9.6484375 9.2050781 10.30599 10.943359 11.621094 12.193359 C 12.936198 13.443359 15.065104 14.361328 18.007812 14.947266 L 20.410156 15.416016 C 22.415365 15.819661 23.854167 16.42513 24.726562 17.232422 C 25.611979 18.039714 26.054688 19.159505 26.054688 20.591797 C 26.054688 22.232422 25.442708 23.495443 24.21875 24.380859 C 22.994792 25.266276 21.25651 25.708984 19.003906 25.708984 C 17.519531 25.708984 16.009115 25.48112 14.472656 25.025391 C 12.936198 24.569661 11.367188 23.892578 9.765625 22.994141 L 9.765625 27.056641 C 11.432292 27.66862 13.040365 28.130859 14.589844 28.443359 C 16.152344 28.755859 17.623698 28.912109 19.003906 28.912109 C 22.66276 28.912109 25.436198 28.182943 27.324219 26.724609 C 29.22526 25.266276 30.175781 23.124349 30.175781 20.298828 C 30.175781 17.929036 29.472656 16.041016 28.066406 14.634766 C 26.673177 13.215495 24.505208 12.225911 21.5625 11.666016 L 19.179688 11.177734 C 17.018229 10.774089 15.546875 10.246745 14.765625 9.5957031 C 13.997396 8.9316406 13.613281 7.9550781 13.613281 6.6660156 C 13.613281 5.1295573 14.192708 3.9446615 15.351562 3.1113281 C 16.523438 2.2779948 18.183594 1.8613281 20.332031 1.8613281 C 21.56901 1.8613281 22.851562 2.0371094 24.179688 2.3886719 C 25.507812 2.7402344 26.920573 3.2740885 28.417969 3.9902344 L 28.417969 0.14257812 C 26.933594 -0.35221354 25.481771 -0.72330729 24.0625 -0.97070312 C 22.643229 -1.218099 21.25 -1.3417969 19.882812 -1.3417969 z M 45.273438 -1.3417969 C 42.083333 -1.3417969 39.576823 -0.59960938 37.753906 0.88476562 C 35.94401 2.3691406 35.039062 4.4003906 35.039062 6.9785156 C 35.039062 9.2050781 35.696615 10.943359 37.011719 12.193359 C 38.326823 13.443359 40.455729 14.361328 43.398438 14.947266 L 45.800781 15.416016 C 47.80599 15.819661 49.244792 16.42513 50.117188 17.232422 C 51.002604 18.039714 51.445312 19.159505 51.445312 20.591797 C 51.445312 22.232422 50.833333 23.495443 49.609375 24.380859 C 48.385417 25.266276 46.647135 25.708984 44.394531 25.708984 C 42.910156 25.708984 41.39974 25.48112 39.863281 25.025391 C 38.326823 24.569661 36.757812 23.892578 35.15625 22.994141 L 35.15625 27.056641 C 36.822917 27.66862 38.43099 28.130859 39.980469 28.443359 C 41.542969 28.755859 43.014323 28.912109 44.394531 28.912109 C 48.053385 28.912109 50.826823 28.182943 52.714844 26.724609 C 54.615885 25.266276 55.566406 23.124349 55.566406 20.298828 C 55.566406 17.929036 54.863281 16.041016 53.457031 14.634766 C 52.063802 13.215495 49.895833 12.225911 46.953125 11.666016 L 44.570312 11.177734 C 42.408854 10.774089 40.9375 10.246745 40.15625 9.5957031 C 39.388021 8.9316406 39.003906 7.9550781 39.003906 6.6660156 C 39.003906 5.1295573 39.583333 3.9446615 40.742188 3.1113281 C 41.914062 2.2779948 43.574219 1.8613281 45.722656 1.8613281 C 46.959635 1.8613281 48.242188 2.0371094 49.570312 2.3886719 C 50.898438 2.7402344 52.311198 3.2740885 53.808594 3.9902344 L 53.808594 0.14257812 C 52.324219 -0.35221354 50.872396 -0.72330729 49.453125 -0.97070312 C 48.033854 -1.218099 46.640625 -1.3417969 45.273438 -1.3417969 z "
     style="font-style:normal;font-weight:normal;font-size:40px;line-height:1.25;font-family:sans-serif;letter-spacing:0px;word-spacing:0px;fill:#ffffff;fill-opacity:1;stroke:none"
     id="text835"
     d="m -4.4335938,-1.3417969 c -4.4140624,0 -7.8906252,1.35416669 -10.4296872,4.0625 -2.539063,2.6953125 -3.808594,6.3867188 -3.808594,11.0742189 0,4.674479 1.269531,8.365885 3.808594,11.074219 2.539062,2.695312 6.0156248,4.042968 10.4296872,4.042968 1.71875,0 3.3463542,-0.234375 4.88281255,-0.703125 C 1.9986979,27.740234 3.4635417,27.037109 4.84375,26.099609 v -4.121093 c -1.328125,1.236979 -2.7473958,2.161458 -4.2578125,2.773437 -1.49739583,0.611979 -3.0924479,0.917969 -4.7851563,0.917969 -3.3333333,0 -5.8854162,-1.015625 -7.6562502,-3.046875 -1.770833,-2.044271 -2.65625,-4.986979 -2.65625,-8.828125 0,-3.8541668 0.885417,-6.7968751 2.65625,-8.8281251 1.770834,-2.0442709 4.3229169,-3.0664063 7.6562502,-3.0664063 1.6927084,0 3.28776047,0.3059896 4.7851563,0.9179688 C 2.0963542,3.4303385 3.515625,4.3548177 4.84375,5.5917969 V 1.4316406 C 3.4895833,0.50716146 2.0377604,-0.18294271 0.48828125,-0.63867188 -1.0481771,-1.1074219 -2.6888021,-1.3417969 -4.4335938,-1.3417969 Z m 24.3164058,0 c -3.190104,0 -5.696614,0.74218752 -7.519531,2.22656252 C 10.553385,2.3691406 9.6484375,4.4003906 9.6484375,6.9785156 c 0,2.2265625 0.6575525,3.9648434 1.9726565,5.2148434 1.315104,1.25 3.44401,2.167969 6.386718,2.753907 l 2.402344,0.46875 c 2.005209,0.403645 3.444011,1.009114 4.316406,1.816406 0.885417,0.807292 1.328126,1.927083 1.328126,3.359375 0,1.640625 -0.61198,2.903646 -1.835938,3.789062 -1.223958,0.885417 -2.96224,1.328125 -5.214844,1.328125 -1.484375,0 -2.994791,-0.227864 -4.53125,-0.683593 -1.536458,-0.45573 -3.105468,-1.132813 -4.707031,-2.03125 v 4.0625 c 1.666667,0.611979 3.27474,1.074218 4.824219,1.386718 1.5625,0.3125 3.033854,0.46875 4.414062,0.46875 3.658854,0 6.432292,-0.729166 8.320313,-2.1875 1.901041,-1.458333 2.851562,-3.60026 2.851562,-6.425781 0,-2.369792 -0.703125,-4.257812 -2.109375,-5.664062 -1.393229,-1.419271 -3.561198,-2.408855 -6.503906,-2.96875 L 19.179688,11.177734 C 17.018229,10.774089 15.546875,10.246745 14.765625,9.5957031 13.997396,8.9316406 13.613281,7.9550781 13.613281,6.6660156 c 0,-1.5364583 0.579427,-2.7213541 1.738281,-3.5546875 1.171876,-0.8333333 2.832032,-1.25 4.980469,-1.25 1.236979,0 2.519531,0.1757813 3.847657,0.5273438 1.328124,0.3515625 2.740885,0.8854166 4.238281,1.6015625 V 0.14257812 C 26.933594,-0.35221354 25.481771,-0.72330729 24.0625,-0.97070312 22.643229,-1.218099 21.25,-1.3417969 19.882812,-1.3417969 Z m 25.390626,0 c -3.190105,0 -5.696615,0.74218752 -7.519532,2.22656252 -1.809896,1.48437498 -2.714844,3.51562498 -2.714844,6.09374998 0,2.2265625 0.657553,3.9648434 1.972657,5.2148434 1.315104,1.25 3.44401,2.167969 6.386719,2.753907 l 2.402343,0.46875 c 2.005209,0.403645 3.444011,1.009114 4.316407,1.816406 0.885416,0.807292 1.328124,1.927083 1.328124,3.359375 0,1.640625 -0.611979,2.903646 -1.835937,3.789062 -1.223958,0.885417 -2.96224,1.328125 -5.214844,1.328125 -1.484375,0 -2.994791,-0.227864 -4.53125,-0.683593 -1.536458,-0.45573 -3.105469,-1.132813 -4.707031,-2.03125 v 4.0625 c 1.666667,0.611979 3.27474,1.074218 4.824219,1.386718 1.5625,0.3125 3.033854,0.46875 4.414062,0.46875 3.658854,0 6.432292,-0.729166 8.320313,-2.1875 1.901041,-1.458333 2.851562,-3.60026 2.851562,-6.425781 0,-2.369792 -0.703125,-4.257812 -2.109375,-5.664062 -1.393229,-1.419271 -3.561198,-2.408855 -6.503906,-2.96875 L 44.570312,11.177734 C 42.408854,10.774089 40.9375,10.246745 40.15625,9.5957031 39.388021,8.9316406 39.003906,7.9550781 39.003906,6.6660156 c 0,-1.5364583 0.579427,-2.7213541 1.738282,-3.5546875 1.171874,-0.8333333 2.832031,-1.25 4.980468,-1.25 1.236979,0 2.519532,0.1757813 3.847656,0.5273438 1.328126,0.3515625 2.740886,0.8854166 4.238282,1.6015625 V 0.14257812 C 52.324219,-0.35221354 50.872396,-0.72330729 49.453125,-0.97070312 48.033854,-1.218099 46.640625,-1.3417969 45.273438,-1.3417969 Z"
     transform="matrix(0.1983215,0,0,0.1983215,5.3415106,9.2661072)" />
</svg>
