<?xml version="1.0" encoding="UTF-8" standalone="no"?>
<svg
   xmlns:dc="http://purl.org/dc/elements/1.1/"
   xmlns:cc="http://creativecommons.org/ns#"
   xmlns:rdf="http://www.w3.org/1999/02/22-rdf-syntax-ns#"
   xmlns:svg="http://www.w3.org/2000/svg"
   xmlns="http://www.w3.org/2000/svg"
   xmlns:xlink="http://www.w3.org/1999/xlink"
   xmlns:sodipodi="http://sodipodi.sourceforge.net/DTD/sodipodi-0.dtd"
   xmlns:inkscape="http://www.inkscape.org/namespaces/inkscape"
   width="32"
   height="32"
   version="1"
   id="svg6314"
   sodipodi:docname="x-office-spreadsheet.svg"
   inkscape:version="0.92.5 (2060ec1f9f, 2020-04-08)">
  <metadata
     id="metadata6320">
    <rdf:RDF>
      <cc:Work
         rdf:about="">
        <dc:format>image/svg+xml</dc:format>
        <dc:type
           rdf:resource="http://purl.org/dc/dcmitype/StillImage" />
        <dc:title />
      </cc:Work>
    </rdf:RDF>
  </metadata>
  <defs
     id="defs6318">
    <linearGradient
       inkscape:collect="always"
       id="linearGradient5569">
      <stop
         style="stop-color:#e6e6e6;stop-opacity:1;"
         offset="0"
         id="stop5565" />
      <stop
         style="stop-color:#f0f0f0;stop-opacity:1"
         offset="1"
         id="stop5567" />
    </linearGradient>
    <linearGradient
       inkscape:collect="always"
       xlink:href="#linearGradient5569"
       id="linearGradient5571"
       x1="24.179562"
       y1="44.134567"
       x2="22.166527"
       y2="4.0092521"
       gradientUnits="userSpaceOnUse"
       gradientTransform="matrix(0.75000001,0,0,0.7,-2,-0.8)" />
  </defs>
  <sodipodi:namedview
     pagecolor="#ffffff"
     bordercolor="#666666"
     borderopacity="1"
     objecttolerance="10"
     gridtolerance="10"
     guidetolerance="10"
     inkscape:pageopacity="0"
     inkscape:pageshadow="2"
     inkscape:window-width="1920"
     inkscape:window-height="1021"
     id="namedview6316"
     showgrid="false"
     inkscape:zoom="13.906433"
     inkscape:cx="17.778881"
     inkscape:cy="11.667789"
     inkscape:window-x="0"
     inkscape:window-y="25"
     inkscape:window-maximized="1"
     inkscape:current-layer="svg6314" />
  <path
     inkscape:connector-curvature="0"
     style="opacity:0.2;fill:#000000;fill-opacity:1;stroke:none;stroke-width:1.12688565"
     d="M 4,3 V 31 H 28 V 10 L 20.5,3 Z"
     id="rect5540-8" />
  <path
     style="opacity:1;fill:url(#linearGradient5571);fill-opacity:1;stroke:none;stroke-width:1.12688565"
     d="M 4,2 V 30 H 28 V 9 L 20.5,2 Z"
     id="rect5540"
     inkscape:connector-curvature="0" />
  <path
     style="opacity:0.2;fill:#000000;fill-opacity:1;stroke:none;stroke-width:0.72456884px;stroke-linecap:butt;stroke-linejoin:miter;stroke-opacity:1"
     d="M 20.5,2 V 9 H 28 Z"
     id="path5546-4"
     inkscape:connector-curvature="0" />
  <rect
     style="opacity:1;fill:#207245;fill-opacity:1;stroke:none;stroke-width:0.28549671"
     id="rect7379"
     width="8"
     height="8"
     x="6"
     y="6" />
  <path
     style="opacity:0.2;fill:#000000;fill-opacity:1;stroke:none;stroke-width:0.1032201;stroke-miterlimit:4;stroke-dasharray:none;stroke-opacity:1"
     d="m 7,17.4 v 2.8 2.8 2.8 2.8 H 11.5 16 20.5 25 V 25.8 23 20.2 17.4 H 20.5 16 11.5 Z m 0.4497076,0.467578 h 3.6005854 v 1.866211 H 7.4497076 Z m 4.5000004,0 h 3.600585 v 1.866211 h -3.600585 z m 4.5,0 h 3.600585 v 1.866211 h -3.600585 z m 4.5,0 h 3.600585 v 1.866211 h -3.600585 z m -13.5000004,2.8 h 3.6005854 v 1.866211 H 7.4497076 Z m 4.5000004,0 h 3.600585 v 1.866211 h -3.600585 z m 4.5,0 h 3.600585 v 1.866211 h -3.600585 z m 4.5,0 h 3.600585 v 1.866211 h -3.600585 z m -13.5000004,2.8 H 11.050293 V 25.33379 H 7.4497076 Z m 4.5000004,0 h 3.600585 v 1.866212 h -3.600585 z m 4.5,0 h 3.600585 v 1.866212 h -3.600585 z m 4.5,0 h 3.600585 v 1.866212 h -3.600585 z m -13.5000004,2.8 h 3.6005854 v 1.866211 H 7.4497076 Z m 4.5000004,0 h 3.600585 v 1.866211 h -3.600585 z m 4.5,0 h 3.600585 v 1.866211 h -3.600585 z m 4.5,0 h 3.600585 v 1.866211 h -3.600585 z"
     id="rect2862-0"
     inkscape:connector-curvature="0" />
  <path
     sodipodi:type="inkscape:offset"
     inkscape:radius="0"
     inkscape:original="M -17.111328 -6.2558594 L -8.0292969 7.3378906 L -18.439453 22.904297 L -14.181641 22.904297 L -5.9199219 10.501953 L 2.2832031 22.904297 L 6.5214844 22.904297 L -3.4785156 7.7480469 L 5.8964844 -6.2558594 L 1.6582031 -6.2558594 L -5.6269531 4.5839844 L -12.873047 -6.2558594 L -17.111328 -6.2558594 z "
     style="font-style:normal;font-weight:normal;font-size:40px;line-height:1.25;font-family:sans-serif;letter-spacing:0px;word-spacing:0px;fill:#ffffff;fill-opacity:1;stroke:#ffffff;stroke-width:2.43001318;stroke-miterlimit:4;stroke-dasharray:none;stroke-opacity:1"
     id="text4170"
     d="m -17.111328,-6.2558594 9.0820311,13.59375 -10.4101561,15.5664064 h 4.257812 l 8.2617191,-12.402344 8.203125,12.402344 h 4.2382813 l -10,-15.1562501 9.375,-14.0039063 H 1.6582031 L -5.6269531,4.5839844 -12.873047,-6.2558594 Z"
     transform="matrix(0.13717348,0,0,0.13717348,10.818576,8.8581388)" />
</svg>
